<?xml version="1.0" encoding="UTF-8" standalone="no"?>
<!-- Created with Inkscape (http://www.inkscape.org/) -->

<svg
   version="1.1"
   id="svg182"
   width="121.48933"
   height="76.822662"
   viewBox="0 0 121.48933 76.822662"
   xmlns="http://www.w3.org/2000/svg"
   xmlns:svg="http://www.w3.org/2000/svg">
  <defs
     id="defs186" />
  <g
     id="g188"
     transform="matrix(1.3333333,0,0,1.3333333,-23.073333,-5.1773332)">
    <g
       id="g190">
      <path
         d="m 50.813,17.914 c 0,0.211 -0.028,0.399 -0.083,0.559 -0.054,0.164 -0.125,0.3 -0.218,0.418 -0.094,0.113 -0.199,0.207 -0.321,0.281 -0.121,0.07 -0.25,0.125 -0.378,0.16 v 0.016 c 0.16,0.031 0.308,0.086 0.449,0.172 0.14,0.082 0.261,0.187 0.367,0.312 0.101,0.125 0.187,0.27 0.25,0.441 0.062,0.168 0.094,0.356 0.094,0.559 0,0.242 -0.043,0.465 -0.125,0.668 -0.086,0.203 -0.215,0.379 -0.391,0.527 -0.176,0.149 -0.394,0.266 -0.664,0.348 -0.266,0.082 -0.586,0.125 -0.953,0.125 h -1.258 v -6.16 h 1.184 c 0.363,0 0.675,0.039 0.933,0.113 0.258,0.074 0.473,0.18 0.641,0.317 0.164,0.136 0.285,0.3 0.359,0.496 0.074,0.191 0.114,0.41 0.114,0.648 z m -0.786,0.024 c 0,-0.286 -0.101,-0.52 -0.304,-0.704 -0.203,-0.183 -0.52,-0.277 -0.957,-0.277 h -0.411 v 2.125 h 0.403 c 0.418,0 0.73,-0.102 0.945,-0.305 0.215,-0.203 0.324,-0.48 0.324,-0.839 z m 0.114,2.839 c 0,-0.332 -0.11,-0.597 -0.325,-0.789 -0.218,-0.195 -0.527,-0.293 -0.933,-0.293 h -0.528 v 2.16 h 0.485 c 0.457,0 0.789,-0.089 0.992,-0.269 0.207,-0.184 0.309,-0.453 0.309,-0.809 z m 4.785,1.723 h -0.66 v -0.48 h -0.02 c -0.016,0.035 -0.055,0.085 -0.113,0.156 -0.063,0.066 -0.137,0.133 -0.231,0.195 -0.089,0.063 -0.203,0.117 -0.332,0.164 -0.132,0.047 -0.277,0.07 -0.437,0.07 -0.192,0 -0.363,-0.027 -0.516,-0.082 C 52.465,22.465 52.336,22.375 52.23,22.25 52.121,22.125 52.043,21.961 51.984,21.762 51.93,21.563 51.898,21.32 51.898,21.027 v -2.812 h 0.723 v 2.758 c 0,0.359 0.059,0.613 0.176,0.765 0.117,0.149 0.297,0.227 0.539,0.227 0.211,0 0.383,-0.051 0.527,-0.156 0.145,-0.106 0.258,-0.207 0.34,-0.309 v -3.285 h 0.723 z m 3.445,0 v -2.758 c 0,-0.363 -0.062,-0.625 -0.183,-0.781 -0.122,-0.156 -0.309,-0.238 -0.559,-0.238 -0.215,0 -0.391,0.054 -0.535,0.164 -0.141,0.105 -0.254,0.211 -0.34,0.312 V 22.5 h -0.723 v -4.285 h 0.66 v 0.484 h 0.02 c 0.016,-0.039 0.055,-0.09 0.117,-0.156 0.059,-0.07 0.137,-0.137 0.231,-0.199 0.093,-0.063 0.207,-0.117 0.339,-0.164 0.129,-0.047 0.278,-0.071 0.446,-0.071 0.191,0 0.363,0.028 0.519,0.082 0.153,0.059 0.285,0.149 0.391,0.274 0.109,0.125 0.191,0.289 0.25,0.488 0.059,0.199 0.09,0.445 0.09,0.735 V 22.5 Z m 1.606,-2.078 c 0,-0.438 0.058,-0.801 0.171,-1.09 0.11,-0.293 0.258,-0.527 0.434,-0.707 0.18,-0.176 0.383,-0.305 0.609,-0.379 0.227,-0.074 0.454,-0.109 0.676,-0.109 0.141,0 0.258,0.008 0.36,0.031 0.101,0.02 0.183,0.043 0.25,0.074 v -2.051 l 0.722,-0.082 V 22.5 h -0.66 V 22.043 H 62.52 c -0.016,0.039 -0.051,0.086 -0.098,0.148 -0.047,0.063 -0.113,0.125 -0.195,0.188 -0.082,0.062 -0.188,0.117 -0.313,0.16 -0.125,0.047 -0.269,0.066 -0.437,0.066 -0.204,0 -0.395,-0.039 -0.575,-0.121 -0.183,-0.078 -0.343,-0.207 -0.48,-0.382 -0.137,-0.176 -0.242,-0.403 -0.324,-0.676 -0.082,-0.278 -0.121,-0.613 -0.121,-1.004 z m 1.695,1.543 c 0.113,0 0.215,-0.016 0.305,-0.047 0.089,-0.027 0.168,-0.066 0.23,-0.109 0.066,-0.047 0.121,-0.09 0.168,-0.141 0.043,-0.047 0.078,-0.086 0.102,-0.125 V 18.902 C 62.41,18.859 62.336,18.824 62.25,18.797 62.16,18.766 62.055,18.75 61.922,18.75 c -0.164,0 -0.32,0.031 -0.469,0.086 -0.144,0.055 -0.269,0.148 -0.379,0.281 -0.105,0.129 -0.191,0.301 -0.254,0.508 -0.062,0.211 -0.093,0.465 -0.093,0.77 0,0.296 0.023,0.543 0.074,0.742 0.051,0.203 0.121,0.363 0.211,0.484 0.09,0.121 0.191,0.211 0.304,0.262 0.114,0.055 0.231,0.082 0.356,0.082 z m 5.383,-2.305 c 0,0.188 -0.008,0.344 -0.02,0.481 -0.012,0.132 -0.023,0.25 -0.035,0.351 h -2.187 c 0.027,0.504 0.132,0.879 0.328,1.113 0.191,0.239 0.472,0.36 0.832,0.36 0.125,0 0.238,-0.016 0.34,-0.047 0.101,-0.027 0.191,-0.063 0.265,-0.105 0.074,-0.043 0.137,-0.083 0.188,-0.125 0.05,-0.043 0.086,-0.075 0.109,-0.098 l 0.27,0.508 c -0.032,0.031 -0.075,0.074 -0.133,0.129 -0.063,0.058 -0.141,0.113 -0.242,0.171 -0.102,0.055 -0.227,0.106 -0.375,0.145 -0.149,0.043 -0.325,0.062 -0.528,0.062 -0.265,0 -0.512,-0.042 -0.726,-0.132 -0.219,-0.09 -0.403,-0.227 -0.555,-0.414 -0.152,-0.188 -0.27,-0.426 -0.352,-0.715 -0.082,-0.289 -0.125,-0.637 -0.125,-1.039 0,-0.383 0.043,-0.711 0.129,-0.989 0.086,-0.273 0.203,-0.503 0.352,-0.679 0.148,-0.18 0.324,-0.313 0.519,-0.399 0.196,-0.086 0.407,-0.129 0.633,-0.129 0.41,0 0.731,0.129 0.965,0.387 0.231,0.258 0.348,0.649 0.348,1.164 z m -1.356,-0.961 c -0.258,0 -0.461,0.106 -0.617,0.321 -0.156,0.214 -0.242,0.523 -0.269,0.925 h 1.562 c 0.008,-0.027 0.012,-0.07 0.016,-0.129 0,-0.054 0.004,-0.117 0.004,-0.179 0,-0.301 -0.059,-0.532 -0.18,-0.696 -0.117,-0.16 -0.289,-0.242 -0.516,-0.242 z m 4.168,0.383 c -0.051,-0.055 -0.137,-0.129 -0.262,-0.219 -0.125,-0.093 -0.285,-0.14 -0.488,-0.14 -0.191,0 -0.336,0.047 -0.437,0.136 -0.102,0.09 -0.153,0.196 -0.153,0.321 0,0.16 0.047,0.293 0.137,0.398 0.094,0.102 0.234,0.215 0.426,0.332 l 0.265,0.16 c 0.293,0.176 0.524,0.36 0.688,0.559 0.168,0.199 0.25,0.457 0.25,0.773 0,0.34 -0.117,0.625 -0.352,0.856 -0.234,0.234 -0.574,0.347 -1.011,0.347 -0.172,0 -0.325,-0.015 -0.457,-0.05 -0.129,-0.039 -0.246,-0.078 -0.344,-0.125 -0.098,-0.051 -0.18,-0.102 -0.246,-0.157 -0.063,-0.058 -0.117,-0.109 -0.16,-0.156 l 0.347,-0.574 c 0.039,0.039 0.082,0.078 0.133,0.125 0.047,0.051 0.11,0.094 0.18,0.141 0.074,0.043 0.152,0.082 0.242,0.109 0.09,0.031 0.195,0.047 0.313,0.047 0.214,0 0.378,-0.047 0.492,-0.145 0.113,-0.093 0.168,-0.211 0.168,-0.347 0,-0.102 -0.012,-0.188 -0.039,-0.262 C 69.531,21.137 69.492,21.07 69.438,21.008 69.383,20.949 69.32,20.895 69.242,20.84 69.164,20.785 69.074,20.727 68.973,20.66 l -0.266,-0.168 c -0.269,-0.172 -0.48,-0.355 -0.629,-0.547 -0.152,-0.187 -0.23,-0.433 -0.23,-0.73 0,-0.16 0.031,-0.309 0.093,-0.442 0.063,-0.132 0.153,-0.25 0.266,-0.347 0.113,-0.098 0.246,-0.176 0.395,-0.235 0.152,-0.054 0.316,-0.082 0.488,-0.082 0.168,0 0.308,0.016 0.43,0.047 0.117,0.035 0.218,0.074 0.304,0.125 0.086,0.051 0.16,0.102 0.215,0.153 0.059,0.05 0.102,0.093 0.141,0.129 z m 3.524,3.418 v -2.758 c 0,-0.351 -0.051,-0.605 -0.153,-0.758 -0.101,-0.156 -0.261,-0.234 -0.488,-0.234 -0.121,0 -0.227,0.016 -0.316,0.047 -0.094,0.027 -0.176,0.066 -0.246,0.109 C 72.113,18.953 72.051,19 72,19.055 c -0.055,0.054 -0.098,0.101 -0.137,0.144 V 22.5 h -0.722 v -4.285 h 0.66 v 0.484 h 0.019 c 0.032,-0.051 0.075,-0.105 0.133,-0.176 0.063,-0.066 0.137,-0.132 0.223,-0.195 0.09,-0.062 0.195,-0.117 0.312,-0.156 0.121,-0.043 0.254,-0.063 0.403,-0.063 0.488,0 0.832,0.192 1.035,0.571 0.043,-0.059 0.097,-0.125 0.172,-0.192 0.07,-0.07 0.152,-0.133 0.25,-0.187 0.093,-0.059 0.199,-0.102 0.32,-0.137 0.117,-0.039 0.25,-0.055 0.391,-0.055 0.871,0 1.304,0.504 1.304,1.516 V 22.5 h -0.722 v -2.758 c 0,-0.351 -0.063,-0.605 -0.188,-0.758 -0.125,-0.156 -0.308,-0.234 -0.555,-0.234 -0.199,0 -0.371,0.051 -0.503,0.148 -0.133,0.098 -0.239,0.192 -0.317,0.282 0.012,0.066 0.02,0.136 0.027,0.211 0.004,0.074 0.008,0.152 0.008,0.234 V 22.5 Z m 4.777,0 h -0.727 v -4.285 h 0.727 z m -0.359,-5.32 c -0.149,0 -0.266,-0.047 -0.356,-0.141 -0.09,-0.098 -0.137,-0.223 -0.137,-0.375 0,-0.148 0.047,-0.273 0.137,-0.367 0.09,-0.094 0.207,-0.145 0.356,-0.145 0.144,0 0.257,0.051 0.347,0.145 0.09,0.094 0.137,0.219 0.137,0.367 0,0.152 -0.047,0.277 -0.137,0.375 -0.09,0.094 -0.203,0.141 -0.347,0.141 z m 3.8,5.32 v -2.758 c 0,-0.363 -0.058,-0.625 -0.179,-0.781 -0.125,-0.156 -0.309,-0.238 -0.559,-0.238 -0.215,0 -0.394,0.054 -0.535,0.164 -0.145,0.105 -0.258,0.211 -0.34,0.312 V 22.5 h -0.723 v -4.285 h 0.661 v 0.484 h 0.015 c 0.02,-0.039 0.059,-0.09 0.117,-0.156 0.059,-0.07 0.137,-0.137 0.235,-0.199 0.094,-0.063 0.207,-0.117 0.336,-0.164 0.133,-0.047 0.281,-0.071 0.449,-0.071 0.187,0 0.363,0.028 0.516,0.082 0.156,0.059 0.285,0.149 0.394,0.274 0.106,0.125 0.188,0.289 0.25,0.488 0.059,0.199 0.09,0.445 0.09,0.735 V 22.5 Z m 2.528,0 h -0.723 v -4.285 h 0.723 z m -0.356,-5.32 c -0.148,0 -0.269,-0.047 -0.359,-0.141 -0.09,-0.098 -0.133,-0.223 -0.133,-0.375 0,-0.148 0.043,-0.273 0.133,-0.367 0.09,-0.094 0.211,-0.145 0.359,-0.145 0.141,0 0.258,0.051 0.348,0.145 0.09,0.094 0.133,0.219 0.133,0.367 0,0.152 -0.043,0.277 -0.133,0.375 -0.09,0.094 -0.207,0.141 -0.348,0.141 z m 3.309,1.902 c -0.047,-0.055 -0.133,-0.129 -0.258,-0.219 -0.125,-0.093 -0.289,-0.14 -0.492,-0.14 -0.188,0 -0.336,0.047 -0.438,0.136 -0.097,0.09 -0.148,0.196 -0.148,0.321 0,0.16 0.043,0.293 0.137,0.398 0.093,0.102 0.234,0.215 0.425,0.332 l 0.266,0.16 c 0.293,0.176 0.52,0.36 0.688,0.559 0.168,0.199 0.25,0.457 0.25,0.773 0,0.34 -0.118,0.625 -0.352,0.856 -0.234,0.234 -0.574,0.347 -1.016,0.347 -0.172,0 -0.324,-0.015 -0.453,-0.05 -0.133,-0.039 -0.246,-0.078 -0.344,-0.125 -0.097,-0.051 -0.179,-0.102 -0.246,-0.157 -0.066,-0.058 -0.117,-0.109 -0.16,-0.156 l 0.348,-0.574 c 0.035,0.039 0.078,0.078 0.129,0.125 0.051,0.051 0.113,0.094 0.183,0.141 0.071,0.043 0.153,0.082 0.243,0.109 0.089,0.031 0.191,0.047 0.312,0.047 0.215,0 0.375,-0.047 0.488,-0.145 0.114,-0.093 0.172,-0.211 0.172,-0.347 0,-0.102 -0.015,-0.188 -0.039,-0.262 -0.027,-0.074 -0.07,-0.141 -0.121,-0.203 -0.055,-0.059 -0.121,-0.113 -0.199,-0.168 -0.074,-0.055 -0.164,-0.113 -0.266,-0.18 L 85.93,20.492 c -0.266,-0.172 -0.477,-0.355 -0.629,-0.547 -0.153,-0.187 -0.227,-0.433 -0.227,-0.73 0,-0.16 0.031,-0.309 0.094,-0.442 0.062,-0.132 0.148,-0.25 0.262,-0.347 0.113,-0.098 0.246,-0.176 0.398,-0.235 0.152,-0.054 0.313,-0.082 0.488,-0.082 0.164,0 0.309,0.016 0.426,0.047 0.121,0.035 0.223,0.074 0.309,0.125 0.086,0.051 0.156,0.102 0.215,0.153 0.054,0.05 0.101,0.093 0.136,0.129 z m 3.105,-0.277 h -0.933 v 2.375 c 0,0.3 0.035,0.508 0.113,0.621 0.078,0.109 0.211,0.164 0.395,0.164 0.105,0 0.199,-0.016 0.277,-0.047 0.074,-0.027 0.133,-0.055 0.168,-0.078 l 0.098,0.578 c -0.028,0.023 -0.102,0.062 -0.215,0.113 -0.114,0.051 -0.262,0.074 -0.453,0.074 -0.372,0 -0.645,-0.101 -0.832,-0.304 -0.184,-0.207 -0.278,-0.547 -0.278,-1.024 V 18.805 H 88.02 v -0.481 l 0.515,-0.109 0.082,-1.195 h 0.645 v 1.195 h 1.023 z m 3.508,0.855 c 0,0.188 -0.004,0.344 -0.015,0.481 -0.012,0.132 -0.024,0.25 -0.036,0.351 h -2.187 c 0.023,0.504 0.133,0.879 0.324,1.113 0.195,0.239 0.473,0.36 0.836,0.36 0.125,0 0.238,-0.016 0.34,-0.047 0.101,-0.027 0.187,-0.063 0.262,-0.105 0.074,-0.043 0.136,-0.083 0.187,-0.125 0.051,-0.043 0.09,-0.075 0.113,-0.098 l 0.266,0.508 c -0.027,0.031 -0.074,0.074 -0.133,0.129 -0.058,0.058 -0.14,0.113 -0.242,0.171 -0.102,0.055 -0.227,0.106 -0.375,0.145 -0.148,0.043 -0.324,0.062 -0.527,0.062 -0.266,0 -0.508,-0.042 -0.727,-0.132 -0.215,-0.09 -0.402,-0.227 -0.551,-0.414 -0.152,-0.188 -0.269,-0.426 -0.355,-0.715 -0.082,-0.289 -0.125,-0.637 -0.125,-1.039 0,-0.383 0.043,-0.711 0.133,-0.989 0.086,-0.273 0.203,-0.503 0.351,-0.679 0.149,-0.18 0.321,-0.313 0.516,-0.399 0.199,-0.086 0.41,-0.129 0.633,-0.129 0.414,0 0.734,0.129 0.964,0.387 0.235,0.258 0.348,0.649 0.348,1.164 z m -1.355,-0.961 c -0.254,0 -0.461,0.106 -0.618,0.321 -0.152,0.214 -0.242,0.523 -0.265,0.925 h 1.562 c 0.004,-0.027 0.008,-0.07 0.012,-0.129 0.004,-0.054 0.004,-0.117 0.004,-0.179 0,-0.301 -0.059,-0.532 -0.176,-0.696 -0.121,-0.16 -0.293,-0.242 -0.519,-0.242 z m 4.203,0.149 c -0.016,-0.012 -0.055,-0.024 -0.113,-0.043 -0.063,-0.02 -0.141,-0.028 -0.243,-0.028 -0.226,0 -0.402,0.063 -0.531,0.184 -0.129,0.121 -0.219,0.254 -0.273,0.398 V 22.5 h -0.723 v -4.285 h 0.66 v 0.582 h 0.02 c 0.027,-0.086 0.066,-0.168 0.113,-0.246 0.051,-0.082 0.109,-0.153 0.18,-0.215 0.07,-0.063 0.156,-0.109 0.254,-0.148 0.097,-0.036 0.214,-0.051 0.355,-0.051 0.098,0 0.18,0.008 0.242,0.027 0.063,0.016 0.113,0.031 0.149,0.043 z m 1.437,3.652 h -0.722 v -4.285 h 0.722 z m -0.355,-5.32 c -0.149,0 -0.27,-0.047 -0.36,-0.141 -0.089,-0.098 -0.132,-0.223 -0.132,-0.375 0,-0.148 0.043,-0.273 0.132,-0.367 0.09,-0.094 0.211,-0.145 0.36,-0.145 0.14,0 0.258,0.051 0.347,0.145 0.09,0.094 0.133,0.219 0.133,0.367 0,0.152 -0.043,0.277 -0.133,0.375 -0.089,0.094 -0.207,0.141 -0.347,0.141 z m 4.461,5.32 h -0.66 v -0.48 h -0.02 c -0.016,0.035 -0.055,0.085 -0.113,0.156 -0.059,0.066 -0.137,0.133 -0.231,0.195 -0.09,0.063 -0.203,0.117 -0.332,0.164 -0.133,0.047 -0.277,0.07 -0.437,0.07 -0.192,0 -0.363,-0.027 -0.516,-0.082 C 99.637,22.465 99.504,22.375 99.398,22.25 99.293,22.125 99.211,21.961 99.152,21.762 99.098,21.563 99.07,21.32 99.07,21.027 v -2.812 h 0.723 v 2.758 c 0,0.359 0.055,0.613 0.172,0.765 0.117,0.149 0.297,0.227 0.539,0.227 0.211,0 0.387,-0.051 0.527,-0.156 0.145,-0.106 0.258,-0.207 0.34,-0.309 v -3.285 h 0.723 z m 3.355,0 v -2.758 c 0,-0.351 -0.051,-0.605 -0.152,-0.758 -0.102,-0.156 -0.262,-0.234 -0.488,-0.234 -0.121,0 -0.227,0.016 -0.317,0.047 -0.094,0.027 -0.176,0.066 -0.246,0.109 -0.074,0.047 -0.137,0.094 -0.187,0.149 -0.055,0.054 -0.098,0.101 -0.137,0.144 V 22.5 h -0.723 v -4.285 h 0.66 v 0.484 h 0.02 c 0.031,-0.051 0.074,-0.105 0.133,-0.176 0.062,-0.066 0.136,-0.132 0.222,-0.195 0.09,-0.062 0.196,-0.117 0.313,-0.156 0.121,-0.043 0.254,-0.063 0.402,-0.063 0.489,0 0.832,0.192 1.035,0.571 0.043,-0.059 0.098,-0.125 0.172,-0.192 0.071,-0.07 0.153,-0.133 0.25,-0.187 0.094,-0.059 0.199,-0.102 0.321,-0.137 0.117,-0.039 0.25,-0.055 0.39,-0.055 0.871,0 1.305,0.504 1.305,1.516 V 22.5 h -0.723 v -2.758 c 0,-0.351 -0.062,-0.605 -0.187,-0.758 -0.125,-0.156 -0.309,-0.234 -0.555,-0.234 -0.199,0 -0.371,0.051 -0.504,0.148 -0.133,0.098 -0.238,0.192 -0.316,0.282 0.011,0.066 0.019,0.136 0.027,0.211 0.004,0.074 0.008,0.152 0.008,0.234 V 22.5 Z M 49.23,27.805 H 48.355 V 31.5 h -0.722 v -3.695 h -0.516 v -0.481 l 0.516,-0.097 v -0.86 c 0,-0.23 0.035,-0.429 0.097,-0.597 0.067,-0.168 0.153,-0.305 0.262,-0.411 0.106,-0.105 0.231,-0.183 0.375,-0.23 0.141,-0.051 0.293,-0.074 0.453,-0.074 0.157,0 0.285,0.023 0.395,0.062 0.105,0.043 0.176,0.074 0.211,0.098 l -0.149,0.601 c -0.035,-0.027 -0.086,-0.05 -0.152,-0.078 -0.066,-0.027 -0.148,-0.039 -0.242,-0.039 -0.172,0 -0.305,0.055 -0.391,0.16 -0.09,0.106 -0.137,0.305 -0.137,0.59 v 0.766 h 0.965 z m 3.715,3.695 h -0.66 v -0.48 h -0.019 c -0.02,0.035 -0.055,0.085 -0.118,0.156 -0.058,0.066 -0.132,0.133 -0.226,0.195 -0.094,0.063 -0.203,0.117 -0.336,0.164 -0.129,0.047 -0.273,0.07 -0.438,0.07 -0.187,0 -0.359,-0.027 -0.511,-0.082 C 50.484,31.465 50.355,31.375 50.25,31.25 50.141,31.125 50.059,30.961 50.004,30.762 49.945,30.563 49.918,30.32 49.918,30.027 v -2.812 h 0.723 v 2.758 c 0,0.359 0.058,0.613 0.175,0.765 0.114,0.149 0.297,0.227 0.539,0.227 0.208,0 0.383,-0.051 0.528,-0.156 0.14,-0.106 0.254,-0.207 0.34,-0.309 v -3.285 h 0.722 z m -1.777,-5.516 c 0,0.137 -0.043,0.246 -0.125,0.329 -0.082,0.085 -0.184,0.125 -0.305,0.125 -0.117,0 -0.218,-0.04 -0.3,-0.125 -0.086,-0.083 -0.125,-0.192 -0.125,-0.329 0,-0.136 0.039,-0.246 0.125,-0.332 0.082,-0.082 0.183,-0.125 0.3,-0.125 0.121,0 0.223,0.043 0.305,0.125 0.082,0.086 0.125,0.196 0.125,0.332 z m 1.375,0 c 0,0.137 -0.043,0.246 -0.125,0.329 -0.082,0.085 -0.184,0.125 -0.305,0.125 -0.117,0 -0.218,-0.04 -0.3,-0.125 -0.086,-0.083 -0.125,-0.192 -0.125,-0.329 0,-0.136 0.039,-0.246 0.125,-0.332 0.082,-0.082 0.183,-0.125 0.3,-0.125 0.121,0 0.223,0.043 0.305,0.125 0.082,0.086 0.125,0.196 0.125,0.332 z m 3.391,1.864 c -0.016,-0.012 -0.055,-0.024 -0.118,-0.043 -0.058,-0.02 -0.136,-0.028 -0.238,-0.028 -0.226,0 -0.402,0.063 -0.531,0.184 -0.129,0.121 -0.219,0.254 -0.274,0.398 V 31.5 h -0.722 v -4.285 h 0.66 v 0.582 h 0.019 c 0.028,-0.086 0.067,-0.168 0.114,-0.246 0.051,-0.082 0.109,-0.153 0.179,-0.215 0.071,-0.063 0.157,-0.109 0.254,-0.148 0.098,-0.036 0.215,-0.051 0.352,-0.051 0.101,0 0.184,0.008 0.246,0.027 0.063,0.016 0.113,0.031 0.148,0.043 z m 5.785,-0.934 c 0,0.211 -0.028,0.399 -0.082,0.559 -0.055,0.164 -0.125,0.3 -0.219,0.418 -0.09,0.113 -0.199,0.207 -0.32,0.281 -0.121,0.07 -0.25,0.125 -0.379,0.16 v 0.016 c 0.16,0.031 0.308,0.086 0.449,0.172 0.141,0.082 0.262,0.187 0.367,0.312 0.102,0.125 0.188,0.27 0.25,0.441 0.063,0.168 0.094,0.356 0.094,0.559 0,0.242 -0.043,0.465 -0.125,0.668 -0.086,0.203 -0.215,0.379 -0.391,0.527 -0.175,0.149 -0.394,0.266 -0.664,0.348 -0.265,0.082 -0.586,0.125 -0.953,0.125 h -1.258 v -6.16 h 1.184 c 0.363,0 0.676,0.039 0.933,0.113 0.258,0.074 0.473,0.18 0.641,0.317 0.164,0.136 0.285,0.3 0.359,0.496 0.075,0.191 0.114,0.41 0.114,0.648 z m -0.785,0.024 c 0,-0.286 -0.102,-0.52 -0.305,-0.704 -0.203,-0.183 -0.52,-0.277 -0.957,-0.277 h -0.41 v 2.125 h 0.402 c 0.418,0 0.734,-0.102 0.945,-0.305 0.215,-0.203 0.325,-0.48 0.325,-0.839 z m 0.113,2.839 c 0,-0.332 -0.109,-0.597 -0.324,-0.789 -0.219,-0.195 -0.528,-0.293 -0.934,-0.293 h -0.527 v 2.16 h 0.484 c 0.457,0 0.789,-0.089 0.992,-0.269 0.207,-0.184 0.309,-0.453 0.309,-0.809 z m 2.508,1.723 h -0.723 v -4.285 h 0.723 z m -0.356,-5.32 c -0.148,0 -0.269,-0.047 -0.355,-0.141 -0.09,-0.098 -0.137,-0.223 -0.137,-0.375 0,-0.148 0.047,-0.273 0.137,-0.367 0.086,-0.094 0.207,-0.145 0.355,-0.145 0.141,0 0.258,0.051 0.348,0.145 0.09,0.094 0.133,0.219 0.133,0.367 0,0.152 -0.043,0.277 -0.133,0.375 -0.09,0.094 -0.207,0.141 -0.348,0.141 z m 2.176,4.32 c 0,0.18 0.027,0.305 0.078,0.375 0.051,0.07 0.137,0.105 0.262,0.105 0.066,0 0.121,-0.003 0.168,-0.015 0.043,-0.012 0.078,-0.024 0.101,-0.035 l 0.063,0.535 c -0.035,0.015 -0.102,0.039 -0.195,0.07 -0.098,0.031 -0.227,0.043 -0.387,0.043 -0.242,0 -0.438,-0.074 -0.59,-0.223 -0.148,-0.148 -0.223,-0.414 -0.223,-0.792 v -5.372 l 0.723,-0.082 z M 66.5,29.422 c 0,-0.438 0.059,-0.801 0.172,-1.09 0.113,-0.293 0.258,-0.527 0.437,-0.707 0.176,-0.176 0.379,-0.305 0.606,-0.379 0.226,-0.074 0.453,-0.109 0.68,-0.109 0.136,0 0.253,0.008 0.355,0.031 0.102,0.02 0.184,0.043 0.25,0.074 v -2.051 l 0.723,-0.082 V 31.5 h -0.66 v -0.457 h -0.02 c -0.016,0.039 -0.047,0.086 -0.098,0.148 -0.047,0.063 -0.113,0.125 -0.195,0.188 -0.082,0.062 -0.187,0.117 -0.312,0.16 -0.125,0.047 -0.27,0.066 -0.438,0.066 -0.203,0 -0.395,-0.039 -0.574,-0.121 -0.184,-0.078 -0.34,-0.207 -0.477,-0.382 C 66.813,30.926 66.703,30.699 66.621,30.426 66.543,30.148 66.5,29.813 66.5,29.422 Z m 1.695,1.543 c 0.114,0 0.215,-0.016 0.305,-0.047 0.09,-0.027 0.168,-0.066 0.234,-0.109 0.063,-0.047 0.118,-0.09 0.164,-0.141 0.043,-0.047 0.079,-0.086 0.102,-0.125 v -2.641 c -0.066,-0.043 -0.141,-0.078 -0.227,-0.105 -0.085,-0.031 -0.195,-0.047 -0.328,-0.047 -0.164,0 -0.32,0.031 -0.468,0.086 -0.145,0.055 -0.27,0.148 -0.379,0.281 -0.106,0.129 -0.192,0.301 -0.254,0.508 -0.063,0.211 -0.094,0.465 -0.094,0.77 0,0.296 0.027,0.543 0.078,0.742 0.051,0.203 0.121,0.363 0.207,0.484 0.09,0.121 0.192,0.211 0.305,0.262 0.113,0.055 0.23,0.082 0.355,0.082 z m 5.633,0.535 h -0.66 v -0.48 h -0.02 c -0.015,0.035 -0.054,0.085 -0.113,0.156 -0.058,0.066 -0.137,0.133 -0.226,0.195 -0.094,0.063 -0.207,0.117 -0.336,0.164 -0.133,0.047 -0.278,0.07 -0.438,0.07 -0.191,0 -0.363,-0.027 -0.512,-0.082 -0.152,-0.058 -0.281,-0.148 -0.39,-0.273 -0.106,-0.125 -0.188,-0.289 -0.246,-0.488 -0.055,-0.199 -0.082,-0.442 -0.082,-0.735 v -2.812 h 0.722 v 2.758 c 0,0.359 0.059,0.613 0.172,0.765 0.117,0.149 0.297,0.227 0.539,0.227 0.211,0 0.387,-0.051 0.528,-0.156 0.144,-0.106 0.257,-0.207 0.339,-0.309 v -3.285 h 0.723 z m 3.445,0 v -2.758 c 0,-0.363 -0.062,-0.625 -0.183,-0.781 -0.121,-0.156 -0.309,-0.238 -0.559,-0.238 -0.211,0 -0.39,0.054 -0.535,0.164 -0.141,0.105 -0.254,0.211 -0.336,0.312 V 31.5 h -0.726 v -4.285 h 0.664 v 0.484 h 0.015 c 0.02,-0.039 0.059,-0.09 0.117,-0.156 0.059,-0.07 0.137,-0.137 0.231,-0.199 0.098,-0.063 0.211,-0.117 0.34,-0.164 0.133,-0.047 0.281,-0.071 0.445,-0.071 0.192,0 0.363,0.028 0.52,0.082 0.152,0.059 0.285,0.149 0.39,0.274 0.11,0.125 0.192,0.289 0.25,0.488 0.063,0.199 0.09,0.445 0.09,0.735 V 31.5 Z m 4.875,-3.723 h -0.539 c 0.141,0.227 0.207,0.485 0.207,0.77 0,0.226 -0.035,0.43 -0.113,0.609 -0.074,0.184 -0.176,0.336 -0.308,0.461 -0.137,0.125 -0.293,0.219 -0.477,0.285 C 80.738,29.969 80.543,30 80.336,30 h -0.117 c -0.035,0 -0.074,-0.004 -0.117,-0.008 -0.071,0.028 -0.145,0.078 -0.223,0.141 -0.078,0.066 -0.113,0.152 -0.113,0.262 0,0.085 0.031,0.16 0.101,0.218 0.067,0.055 0.18,0.082 0.332,0.082 h 0.547 c 0.203,0 0.391,0.024 0.563,0.063 0.171,0.043 0.32,0.109 0.449,0.203 0.129,0.09 0.226,0.207 0.301,0.352 0.07,0.14 0.105,0.316 0.105,0.515 0,0.235 -0.047,0.445 -0.148,0.637 -0.098,0.187 -0.235,0.351 -0.414,0.488 -0.18,0.137 -0.395,0.246 -0.653,0.324 -0.254,0.075 -0.539,0.114 -0.855,0.114 -0.457,0 -0.805,-0.098 -1.043,-0.297 -0.238,-0.199 -0.36,-0.489 -0.36,-0.864 0,-0.16 0.032,-0.296 0.086,-0.414 0.059,-0.117 0.125,-0.218 0.2,-0.304 0.078,-0.086 0.156,-0.153 0.238,-0.203 0.082,-0.051 0.144,-0.09 0.191,-0.121 v -0.02 c -0.183,-0.137 -0.277,-0.336 -0.277,-0.598 0,-0.113 0.023,-0.211 0.066,-0.293 0.047,-0.082 0.098,-0.152 0.153,-0.207 0.058,-0.05 0.113,-0.093 0.172,-0.129 0.054,-0.031 0.097,-0.054 0.128,-0.066 v -0.016 c -0.222,-0.101 -0.398,-0.261 -0.531,-0.48 -0.133,-0.215 -0.203,-0.496 -0.203,-0.832 0,-0.238 0.039,-0.449 0.117,-0.629 0.078,-0.184 0.184,-0.332 0.313,-0.453 0.133,-0.117 0.285,-0.207 0.461,-0.266 0.175,-0.062 0.363,-0.09 0.566,-0.09 0.203,0 0.391,0.036 0.57,0.106 h 1.305 z m -1.992,3.59 c -0.125,0 -0.234,-0.012 -0.328,-0.027 -0.055,0.027 -0.109,0.066 -0.156,0.105 -0.051,0.043 -0.098,0.094 -0.141,0.153 -0.043,0.058 -0.074,0.129 -0.101,0.211 -0.028,0.078 -0.039,0.171 -0.039,0.281 0,0.457 0.25,0.687 0.757,0.687 0.434,0 0.754,-0.086 0.965,-0.254 0.207,-0.171 0.309,-0.367 0.309,-0.585 0,-0.208 -0.063,-0.356 -0.195,-0.442 -0.129,-0.086 -0.305,-0.129 -0.528,-0.129 z m 0.957,-2.82 c 0,-0.313 -0.074,-0.531 -0.218,-0.66 -0.149,-0.133 -0.321,-0.199 -0.516,-0.199 -0.207,0 -0.387,0.066 -0.535,0.199 -0.149,0.129 -0.223,0.347 -0.223,0.66 0,0.308 0.074,0.527 0.223,0.66 0.148,0.129 0.32,0.195 0.519,0.195 0.207,0 0.383,-0.066 0.532,-0.195 0.144,-0.133 0.218,-0.352 0.218,-0.66 z M 50.426,40.5 h -0.66 V 40.02 H 49.75 c -0.02,0.035 -0.059,0.085 -0.117,0.156 -0.059,0.066 -0.137,0.133 -0.227,0.195 -0.093,0.063 -0.203,0.117 -0.336,0.164 -0.129,0.047 -0.277,0.07 -0.437,0.07 -0.192,0 -0.36,-0.027 -0.512,-0.082 C 47.969,40.465 47.84,40.375 47.73,40.25 47.625,40.125 47.543,39.961 47.488,39.762 47.43,39.563 47.402,39.32 47.402,39.027 v -2.812 h 0.723 v 2.758 c 0,0.359 0.059,0.613 0.176,0.765 0.113,0.149 0.293,0.227 0.539,0.227 0.207,0 0.383,-0.051 0.527,-0.156 0.141,-0.106 0.254,-0.207 0.336,-0.309 v -3.285 h 0.723 z m 3.445,0 v -2.758 c 0,-0.363 -0.058,-0.625 -0.18,-0.781 -0.125,-0.156 -0.308,-0.238 -0.558,-0.238 -0.215,0 -0.395,0.054 -0.535,0.164 -0.145,0.105 -0.258,0.211 -0.34,0.312 V 40.5 h -0.723 v -4.285 h 0.66 v 0.484 h 0.016 c 0.019,-0.039 0.059,-0.09 0.117,-0.156 0.059,-0.07 0.137,-0.137 0.231,-0.199 0.097,-0.063 0.211,-0.117 0.339,-0.164 0.133,-0.047 0.282,-0.071 0.45,-0.071 0.187,0 0.359,0.028 0.515,0.086 0.157,0.055 0.285,0.145 0.395,0.27 0.105,0.125 0.187,0.289 0.25,0.488 0.058,0.199 0.086,0.445 0.086,0.735 V 40.5 Z m 1.609,-2.078 c 0,-0.438 0.055,-0.801 0.168,-1.09 0.114,-0.293 0.258,-0.527 0.438,-0.707 0.18,-0.176 0.379,-0.305 0.605,-0.379 0.227,-0.074 0.454,-0.109 0.68,-0.109 0.137,0 0.254,0.008 0.356,0.031 0.101,0.02 0.187,0.043 0.25,0.074 v -2.051 l 0.722,-0.082 V 40.5 h -0.66 v -0.457 h -0.016 c -0.019,0.039 -0.05,0.086 -0.097,0.148 -0.051,0.063 -0.113,0.125 -0.199,0.188 -0.082,0.062 -0.188,0.117 -0.313,0.16 -0.125,0.047 -0.269,0.066 -0.437,0.066 -0.2,0 -0.391,-0.039 -0.575,-0.117 C 56.223,40.406 56.063,40.277 55.926,40.102 55.789,39.926 55.68,39.699 55.598,39.426 55.52,39.148 55.48,38.813 55.48,38.422 Z m 1.696,1.543 c 0.113,0 0.215,-0.016 0.301,-0.047 0.089,-0.027 0.168,-0.066 0.234,-0.109 0.066,-0.047 0.121,-0.09 0.164,-0.141 0.047,-0.047 0.078,-0.086 0.102,-0.125 V 36.902 C 57.914,36.863 57.836,36.824 57.75,36.797 57.664,36.766 57.555,36.75 57.426,36.75 c -0.168,0 -0.324,0.031 -0.469,0.086 -0.148,0.055 -0.273,0.148 -0.379,0.281 -0.109,0.133 -0.191,0.301 -0.254,0.508 -0.062,0.211 -0.094,0.465 -0.094,0.77 0,0.296 0.024,0.543 0.075,0.746 0.05,0.199 0.121,0.359 0.211,0.48 0.089,0.121 0.187,0.211 0.3,0.262 0.114,0.055 0.235,0.082 0.36,0.082 z m 4.676,0.535 v -6.16 h 3.027 l -0.055,0.617 h -2.195 v 2.277 h 2.023 v 0.614 H 62.629 V 40.5 Z m 3.57,-2.141 c 0,-0.394 0.047,-0.734 0.137,-1.019 0.093,-0.285 0.218,-0.52 0.375,-0.699 0.16,-0.184 0.339,-0.317 0.546,-0.403 0.204,-0.086 0.422,-0.129 0.657,-0.129 0.234,0 0.457,0.043 0.66,0.129 0.199,0.086 0.375,0.219 0.523,0.403 0.153,0.179 0.27,0.414 0.356,0.699 0.086,0.285 0.129,0.625 0.129,1.019 0,0.399 -0.047,0.739 -0.133,1.024 -0.09,0.285 -0.215,0.519 -0.371,0.703 -0.16,0.18 -0.34,0.312 -0.551,0.394 -0.207,0.086 -0.426,0.125 -0.66,0.125 -0.238,0 -0.457,-0.039 -0.66,-0.125 -0.203,-0.082 -0.379,-0.214 -0.528,-0.394 -0.148,-0.184 -0.265,-0.414 -0.351,-0.699 -0.086,-0.282 -0.129,-0.625 -0.129,-1.028 z m 2.633,0 c 0,-0.574 -0.082,-0.988 -0.25,-1.246 -0.168,-0.258 -0.399,-0.39 -0.696,-0.39 -0.296,0 -0.527,0.132 -0.691,0.39 -0.164,0.258 -0.246,0.672 -0.246,1.246 0,0.571 0.082,0.981 0.25,1.231 0.164,0.25 0.398,0.375 0.695,0.375 0.297,0 0.528,-0.125 0.692,-0.375 0.164,-0.25 0.246,-0.66 0.246,-1.231 z m 3.543,-1.511 c -0.02,-0.012 -0.059,-0.024 -0.118,-0.043 -0.058,-0.02 -0.14,-0.028 -0.238,-0.028 -0.226,0 -0.406,0.063 -0.531,0.184 -0.129,0.121 -0.219,0.254 -0.273,0.398 V 40.5 h -0.723 v -4.285 h 0.66 v 0.582 h 0.02 c 0.027,-0.086 0.066,-0.168 0.113,-0.246 0.047,-0.082 0.109,-0.153 0.18,-0.215 0.07,-0.063 0.156,-0.109 0.253,-0.148 0.098,-0.036 0.215,-0.051 0.352,-0.051 0.102,0 0.184,0.008 0.246,0.027 0.063,0.016 0.113,0.031 0.149,0.043 z m 2.527,0.234 c -0.051,-0.055 -0.137,-0.129 -0.262,-0.219 -0.125,-0.093 -0.289,-0.14 -0.488,-0.14 -0.191,0 -0.336,0.047 -0.437,0.136 -0.102,0.09 -0.153,0.196 -0.153,0.321 0,0.16 0.047,0.293 0.137,0.398 0.094,0.102 0.234,0.215 0.426,0.332 l 0.265,0.16 c 0.293,0.176 0.524,0.36 0.688,0.559 0.168,0.199 0.25,0.457 0.25,0.773 0,0.34 -0.117,0.625 -0.352,0.856 -0.234,0.234 -0.574,0.347 -1.011,0.347 -0.176,0 -0.325,-0.015 -0.458,-0.05 -0.128,-0.035 -0.246,-0.078 -0.343,-0.125 -0.098,-0.051 -0.18,-0.102 -0.246,-0.157 -0.063,-0.058 -0.118,-0.109 -0.161,-0.156 l 0.348,-0.574 c 0.035,0.039 0.082,0.078 0.129,0.125 0.051,0.051 0.113,0.094 0.184,0.141 0.074,0.043 0.152,0.082 0.242,0.109 0.09,0.031 0.191,0.047 0.312,0.047 0.215,0 0.379,-0.047 0.493,-0.145 0.113,-0.093 0.167,-0.211 0.167,-0.347 0,-0.102 -0.011,-0.188 -0.039,-0.262 C 73.789,39.137 73.75,39.07 73.695,39.008 73.641,38.949 73.574,38.895 73.5,38.84 73.422,38.785 73.332,38.727 73.23,38.66 l -0.265,-0.168 c -0.27,-0.172 -0.481,-0.355 -0.633,-0.547 -0.148,-0.187 -0.227,-0.433 -0.227,-0.73 0,-0.16 0.032,-0.309 0.094,-0.442 0.063,-0.132 0.153,-0.25 0.266,-0.347 0.113,-0.098 0.242,-0.176 0.394,-0.231 0.153,-0.058 0.317,-0.086 0.489,-0.086 0.164,0 0.308,0.016 0.425,0.047 0.122,0.035 0.223,0.074 0.309,0.125 0.086,0.051 0.16,0.102 0.215,0.153 0.058,0.05 0.101,0.093 0.141,0.129 z m 3.656,-0.035 C 77.766,37.027 77.738,37 77.699,36.965 c -0.039,-0.035 -0.09,-0.07 -0.148,-0.106 -0.059,-0.035 -0.133,-0.066 -0.215,-0.093 -0.082,-0.028 -0.18,-0.043 -0.285,-0.043 -0.156,0 -0.301,0.031 -0.434,0.086 -0.133,0.058 -0.25,0.148 -0.347,0.273 -0.098,0.125 -0.176,0.285 -0.231,0.484 -0.059,0.2 -0.086,0.442 -0.086,0.731 0,0.312 0.024,0.578 0.074,0.793 0.051,0.215 0.121,0.387 0.211,0.512 0.09,0.128 0.2,0.222 0.325,0.277 0.128,0.059 0.269,0.086 0.425,0.086 0.219,0 0.387,-0.039 0.504,-0.117 0.117,-0.078 0.199,-0.141 0.246,-0.188 l 0.293,0.5 c -0.027,0.035 -0.07,0.078 -0.129,0.129 -0.054,0.051 -0.129,0.102 -0.218,0.149 -0.09,0.046 -0.196,0.085 -0.325,0.121 -0.129,0.031 -0.277,0.046 -0.441,0.046 -0.238,0 -0.461,-0.039 -0.672,-0.113 -0.207,-0.078 -0.387,-0.207 -0.543,-0.387 -0.156,-0.175 -0.277,-0.41 -0.367,-0.695 -0.09,-0.285 -0.133,-0.64 -0.133,-1.062 0,-0.41 0.055,-0.758 0.16,-1.043 0.11,-0.285 0.246,-0.516 0.422,-0.692 0.172,-0.175 0.363,-0.304 0.574,-0.383 0.211,-0.082 0.422,-0.121 0.637,-0.121 0.16,0 0.305,0.016 0.426,0.043 0.121,0.032 0.226,0.067 0.312,0.114 0.086,0.043 0.157,0.089 0.215,0.14 0.055,0.051 0.102,0.094 0.137,0.129 z m 3.403,3.453 v -2.758 c 0,-0.363 -0.063,-0.625 -0.184,-0.781 -0.121,-0.156 -0.309,-0.238 -0.559,-0.238 -0.214,0 -0.39,0.054 -0.535,0.164 -0.14,0.105 -0.254,0.211 -0.34,0.312 V 40.5 h -0.722 v -6.309 l 0.722,-0.082 v 2.543 h 0.02 c 0.023,-0.035 0.059,-0.082 0.109,-0.14 0.051,-0.063 0.121,-0.121 0.211,-0.18 0.09,-0.059 0.199,-0.113 0.328,-0.156 0.125,-0.043 0.278,-0.067 0.45,-0.067 0.375,0 0.671,0.121 0.89,0.364 0.223,0.246 0.332,0.652 0.332,1.215 V 40.5 Z m 4.8,0 h -0.66 v -0.48 h -0.019 c -0.016,0.035 -0.055,0.085 -0.114,0.156 -0.062,0.066 -0.136,0.133 -0.23,0.195 -0.09,0.063 -0.203,0.117 -0.332,0.164 -0.133,0.047 -0.277,0.07 -0.438,0.07 -0.191,0 -0.363,-0.027 -0.515,-0.082 -0.149,-0.058 -0.281,-0.148 -0.387,-0.273 -0.105,-0.125 -0.187,-0.289 -0.246,-0.488 -0.055,-0.199 -0.082,-0.442 -0.082,-0.735 v -2.812 h 0.723 v 2.758 c 0,0.359 0.054,0.613 0.171,0.765 0.118,0.149 0.297,0.227 0.54,0.227 0.21,0 0.386,-0.051 0.527,-0.156 0.144,-0.106 0.258,-0.207 0.34,-0.309 v -3.285 h 0.722 z m 3.446,0 v -2.758 c 0,-0.363 -0.063,-0.625 -0.184,-0.781 -0.121,-0.156 -0.308,-0.238 -0.558,-0.238 -0.211,0 -0.391,0.054 -0.536,0.164 -0.14,0.105 -0.254,0.211 -0.339,0.312 V 40.5 H 87.09 v -4.285 h 0.66 v 0.484 h 0.02 c 0.019,-0.039 0.058,-0.09 0.117,-0.156 0.058,-0.07 0.136,-0.137 0.23,-0.199 0.098,-0.063 0.207,-0.117 0.34,-0.164 0.129,-0.047 0.281,-0.071 0.445,-0.071 0.192,0 0.364,0.028 0.52,0.086 0.152,0.055 0.285,0.145 0.391,0.27 0.109,0.125 0.191,0.289 0.25,0.488 0.058,0.199 0.089,0.445 0.089,0.735 V 40.5 Z m 4.875,-3.723 h -0.539 c 0.136,0.227 0.207,0.485 0.207,0.77 0,0.226 -0.039,0.43 -0.114,0.609 -0.074,0.184 -0.175,0.336 -0.312,0.461 -0.133,0.125 -0.289,0.219 -0.473,0.285 C 92.895,38.969 92.699,39 92.492,39 h -0.117 c -0.035,0 -0.074,-0.004 -0.117,-0.008 -0.07,0.028 -0.145,0.078 -0.223,0.141 -0.078,0.066 -0.117,0.152 -0.117,0.262 0,0.085 0.035,0.16 0.105,0.218 0.067,0.055 0.18,0.082 0.332,0.082 h 0.547 c 0.203,0 0.391,0.024 0.563,0.063 0.172,0.043 0.32,0.109 0.449,0.203 0.129,0.09 0.227,0.207 0.301,0.352 0.07,0.144 0.105,0.316 0.105,0.515 0,0.235 -0.047,0.445 -0.148,0.637 -0.098,0.187 -0.234,0.351 -0.414,0.488 -0.18,0.137 -0.395,0.246 -0.653,0.324 -0.253,0.075 -0.539,0.114 -0.855,0.114 -0.457,0 -0.805,-0.098 -1.043,-0.297 -0.238,-0.199 -0.359,-0.489 -0.359,-0.864 0,-0.16 0.031,-0.296 0.086,-0.414 0.054,-0.117 0.125,-0.218 0.199,-0.304 0.078,-0.086 0.156,-0.153 0.238,-0.203 0.082,-0.051 0.145,-0.09 0.192,-0.121 v -0.02 c -0.184,-0.137 -0.278,-0.336 -0.278,-0.598 0,-0.113 0.024,-0.211 0.067,-0.293 0.046,-0.082 0.097,-0.152 0.152,-0.207 0.059,-0.05 0.113,-0.093 0.172,-0.129 0.054,-0.031 0.097,-0.054 0.129,-0.066 v -0.016 c -0.223,-0.101 -0.399,-0.261 -0.532,-0.48 -0.132,-0.215 -0.203,-0.496 -0.203,-0.832 0,-0.238 0.039,-0.449 0.118,-0.629 0.078,-0.184 0.183,-0.332 0.312,-0.453 0.133,-0.117 0.285,-0.207 0.461,-0.266 0.176,-0.062 0.363,-0.09 0.566,-0.09 0.203,0 0.391,0.036 0.571,0.106 h 1.304 z m -1.992,3.59 c -0.125,0 -0.235,-0.012 -0.333,-0.027 -0.05,0.027 -0.105,0.066 -0.156,0.105 -0.047,0.043 -0.094,0.094 -0.136,0.153 -0.043,0.058 -0.075,0.129 -0.102,0.211 -0.027,0.078 -0.039,0.171 -0.039,0.281 0,0.457 0.25,0.687 0.758,0.687 0.433,0 0.754,-0.086 0.961,-0.254 0.211,-0.171 0.312,-0.367 0.312,-0.585 0,-0.208 -0.062,-0.356 -0.195,-0.442 -0.129,-0.086 -0.305,-0.129 -0.528,-0.129 z m 0.953,-2.82 c 0,-0.313 -0.071,-0.531 -0.219,-0.66 -0.145,-0.133 -0.317,-0.199 -0.512,-0.199 -0.207,0 -0.387,0.066 -0.535,0.199 -0.148,0.129 -0.223,0.347 -0.223,0.66 0,0.308 0.075,0.527 0.223,0.66 0.148,0.129 0.32,0.195 0.52,0.195 0.207,0 0.382,-0.066 0.527,-0.195 0.148,-0.133 0.219,-0.352 0.219,-0.66 z"
         style="fill:#000000;fill-opacity:1;fill-rule:nonzero;stroke:none"
         id="path192" />
      <path
         d="m 44.602,8.148 c -0.239,0.11 -0.5,0.207 -0.782,0.29 -0.281,0.078 -0.554,0.117 -0.816,0.117 -0.34,0 -0.652,-0.047 -0.938,-0.141 C 41.785,8.32 41.543,8.18 41.344,7.992 41.145,7.805 40.988,7.566 40.879,7.285 40.77,7 40.715,6.668 40.715,6.285 c 0,-0.695 0.203,-1.246 0.609,-1.648 0.406,-0.407 0.969,-0.606 1.68,-0.606 0.246,0 0.5,0.028 0.758,0.09 0.258,0.059 0.539,0.16 0.836,0.301 V 5.109 H 44.547 C 44.484,5.063 44.398,5.004 44.281,4.926 44.168,4.852 44.055,4.785 43.941,4.734 43.809,4.676 43.656,4.625 43.484,4.586 43.313,4.547 43.121,4.523 42.902,4.523 c -0.488,0 -0.875,0.161 -1.16,0.473 -0.281,0.313 -0.426,0.738 -0.426,1.274 0,0.562 0.149,1.003 0.446,1.316 0.297,0.312 0.703,0.469 1.215,0.469 0.187,0 0.375,-0.02 0.558,-0.055 0.188,-0.039 0.352,-0.086 0.492,-0.145 V 6.785 H 42.859 V 6.277 h 1.743 z"
         style="fill:#000000;fill-opacity:1;fill-rule:nonzero;stroke:none"
         id="path194" />
      <path
         d="m 48.313,6.891 h -2.415 c 0,0.203 0.032,0.379 0.094,0.527 0.059,0.148 0.141,0.273 0.246,0.367 0.102,0.094 0.223,0.164 0.364,0.211 0.14,0.047 0.293,0.07 0.461,0.07 0.222,0 0.445,-0.043 0.671,-0.132 0.227,-0.09 0.387,-0.176 0.485,-0.262 h 0.027 V 8.273 C 48.063,8.352 47.871,8.414 47.68,8.469 47.484,8.52 47.281,8.547 47.07,8.547 46.527,8.547 46.102,8.402 45.797,8.109 45.492,7.813 45.34,7.395 45.34,6.855 c 0,-0.535 0.144,-0.96 0.437,-1.277 0.293,-0.312 0.676,-0.469 1.153,-0.469 0.441,0 0.781,0.129 1.019,0.387 0.242,0.258 0.364,0.621 0.364,1.098 z m -0.54,-0.422 c 0,-0.289 -0.074,-0.512 -0.218,-0.668 -0.141,-0.16 -0.36,-0.238 -0.653,-0.238 -0.297,0 -0.531,0.085 -0.707,0.261 -0.172,0.172 -0.273,0.387 -0.297,0.645 z"
         style="fill:#000000;fill-opacity:1;fill-rule:nonzero;stroke:none"
         id="path196" />
      <path
         d="M 50.906,4.445 H 50.879 C 50.816,4.43 50.738,4.41 50.641,4.395 50.543,4.375 50.457,4.363 50.383,4.363 c -0.238,0 -0.41,0.055 -0.516,0.16 -0.105,0.102 -0.16,0.29 -0.16,0.563 v 0.113 h 0.996 V 5.66 H 49.727 V 8.473 H 49.176 V 5.66 H 48.805 V 5.199 h 0.371 V 5.09 c 0,-0.387 0.097,-0.688 0.289,-0.895 0.195,-0.207 0.473,-0.312 0.84,-0.312 0.121,0 0.23,0.008 0.328,0.019 0.101,0.012 0.191,0.024 0.273,0.039 z"
         style="fill:#000000;fill-opacity:1;fill-rule:nonzero;stroke:none"
         id="path198" />
      <path
         d="m 54.043,6.836 c 0,0.535 -0.137,0.953 -0.41,1.262 -0.274,0.308 -0.637,0.465 -1.098,0.465 -0.461,0 -0.832,-0.157 -1.105,-0.465 -0.27,-0.309 -0.407,-0.727 -0.407,-1.262 0,-0.531 0.137,-0.953 0.407,-1.262 0.273,-0.312 0.644,-0.465 1.105,-0.465 0.461,0 0.824,0.153 1.098,0.465 0.273,0.309 0.41,0.731 0.41,1.262 z m -0.566,0 c 0,-0.422 -0.082,-0.738 -0.25,-0.941 -0.164,-0.207 -0.395,-0.313 -0.692,-0.313 -0.297,0 -0.531,0.106 -0.695,0.313 -0.164,0.203 -0.246,0.519 -0.246,0.941 0,0.41 0.082,0.723 0.246,0.934 0.168,0.21 0.398,0.316 0.695,0.316 0.293,0 0.524,-0.102 0.688,-0.313 0.168,-0.21 0.254,-0.523 0.254,-0.937 z M 53.434,4.652 H 52.848 V 4.078 h 0.586 z m -1.211,0 H 51.641 V 4.078 h 0.582 z"
         style="fill:#000000;fill-opacity:1;fill-rule:nonzero;stroke:none"
         id="path200" />
      <path
         d="M 56.938,5.801 H 56.91 C 56.828,5.781 56.746,5.766 56.668,5.758 56.594,5.75 56.504,5.742 56.398,5.742 c -0.171,0 -0.335,0.039 -0.492,0.117 -0.16,0.075 -0.312,0.168 -0.457,0.289 V 8.473 H 54.898 V 5.199 h 0.551 v 0.485 c 0.219,-0.176 0.41,-0.301 0.574,-0.375 0.168,-0.075 0.34,-0.11 0.516,-0.11 0.094,0 0.164,0.004 0.207,0.008 0.043,0.004 0.106,0.012 0.192,0.027 z"
         style="fill:#000000;fill-opacity:1;fill-rule:nonzero;stroke:none"
         id="path202" />
      <path
         d="m 60.113,8.473 h -0.55 V 8.129 c -0.161,0.137 -0.325,0.242 -0.497,0.32 -0.171,0.074 -0.359,0.114 -0.558,0.114 -0.391,0 -0.703,-0.153 -0.934,-0.454 -0.226,-0.3 -0.344,-0.714 -0.344,-1.25 0,-0.277 0.04,-0.523 0.118,-0.742 0.082,-0.215 0.187,-0.398 0.324,-0.551 0.133,-0.148 0.285,-0.261 0.461,-0.339 0.18,-0.079 0.363,-0.118 0.551,-0.118 0.171,0 0.324,0.016 0.457,0.055 0.132,0.035 0.273,0.09 0.422,0.168 V 3.914 h 0.55 z M 59.563,7.664 V 5.789 C 59.414,5.723 59.281,5.676 59.164,5.648 59.047,5.625 58.918,5.613 58.777,5.613 c -0.308,0 -0.547,0.106 -0.718,0.321 -0.172,0.214 -0.258,0.519 -0.258,0.914 0,0.39 0.066,0.683 0.199,0.886 0.133,0.204 0.344,0.305 0.637,0.305 0.156,0 0.316,-0.035 0.476,-0.105 0.16,-0.071 0.309,-0.161 0.45,-0.27 z"
         style="fill:#000000;fill-opacity:1;fill-rule:nonzero;stroke:none"
         id="path204" />
      <path
         d="m 63.934,6.891 h -2.411 c 0,0.203 0.032,0.379 0.09,0.527 0.063,0.148 0.145,0.273 0.25,0.367 0.102,0.094 0.223,0.164 0.36,0.211 0.14,0.047 0.297,0.07 0.465,0.07 0.222,0 0.445,-0.043 0.671,-0.132 0.227,-0.09 0.387,-0.176 0.481,-0.262 h 0.031 v 0.601 c -0.187,0.079 -0.375,0.141 -0.57,0.196 -0.192,0.051 -0.395,0.078 -0.61,0.078 -0.543,0 -0.964,-0.145 -1.269,-0.438 -0.305,-0.296 -0.457,-0.714 -0.457,-1.254 0,-0.535 0.144,-0.96 0.437,-1.277 0.293,-0.312 0.676,-0.469 1.153,-0.469 0.441,0 0.781,0.129 1.019,0.387 0.242,0.258 0.36,0.621 0.36,1.098 z M 63.398,6.469 c 0,-0.289 -0.074,-0.512 -0.218,-0.668 -0.145,-0.16 -0.36,-0.238 -0.653,-0.238 -0.297,0 -0.531,0.085 -0.707,0.261 -0.175,0.172 -0.273,0.387 -0.297,0.645 z"
         style="fill:#000000;fill-opacity:1;fill-rule:nonzero;stroke:none"
         id="path206" />
      <path
         d="M 66.813,5.801 H 66.781 C 66.699,5.781 66.621,5.766 66.543,5.758 66.465,5.75 66.375,5.742 66.27,5.742 c -0.168,0 -0.332,0.039 -0.493,0.117 -0.156,0.075 -0.308,0.168 -0.457,0.289 V 8.473 H 64.77 V 5.199 h 0.55 v 0.485 c 0.219,-0.176 0.41,-0.301 0.578,-0.375 0.168,-0.075 0.34,-0.11 0.512,-0.11 0.098,0 0.164,0.004 0.207,0.008 0.043,0.004 0.11,0.012 0.196,0.027 z"
         style="fill:#000000;fill-opacity:1;fill-rule:nonzero;stroke:none"
         id="path208" />
      <path
         d="m 69.031,8.441 c -0.105,0.028 -0.218,0.051 -0.34,0.067 -0.121,0.019 -0.23,0.027 -0.328,0.027 -0.332,0 -0.586,-0.09 -0.761,-0.269 C 67.43,8.086 67.344,7.797 67.344,7.402 V 5.66 H 66.969 V 5.199 h 0.375 V 4.258 h 0.551 v 0.941 h 1.136 V 5.66 h -1.136 v 1.492 c 0,0.172 0.003,0.309 0.011,0.407 0.008,0.093 0.035,0.183 0.082,0.269 0.043,0.078 0.102,0.133 0.176,0.172 0.074,0.035 0.191,0.051 0.344,0.051 0.09,0 0.183,-0.012 0.281,-0.035 C 68.887,7.988 68.957,7.965 69,7.945 h 0.031 z"
         style="fill:#000000;fill-opacity:1;fill-rule:nonzero;stroke:none"
         id="path210" />
      <path
         d="M 74.633,5.199 73.309,8.473 H 72.758 L 71.441,5.199 h 0.598 l 1.012,2.606 1.008,-2.606 z"
         style="fill:#000000;fill-opacity:1;fill-rule:nonzero;stroke:none"
         id="path212" />
      <path
         d="m 78.09,6.836 c 0,0.535 -0.137,0.953 -0.41,1.262 -0.274,0.308 -0.637,0.465 -1.098,0.465 -0.461,0 -0.832,-0.157 -1.105,-0.465 -0.27,-0.309 -0.407,-0.727 -0.407,-1.262 0,-0.531 0.137,-0.953 0.407,-1.262 0.273,-0.312 0.644,-0.465 1.105,-0.465 0.461,0 0.824,0.153 1.098,0.465 0.273,0.309 0.41,0.731 0.41,1.262 z m -0.567,0 c 0,-0.422 -0.082,-0.738 -0.25,-0.941 -0.164,-0.207 -0.394,-0.313 -0.691,-0.313 -0.297,0 -0.531,0.106 -0.695,0.313 -0.164,0.203 -0.246,0.519 -0.246,0.941 0,0.41 0.082,0.723 0.246,0.934 0.168,0.21 0.398,0.316 0.695,0.316 0.293,0 0.523,-0.102 0.688,-0.313 0.168,-0.21 0.253,-0.523 0.253,-0.937 z"
         style="fill:#000000;fill-opacity:1;fill-rule:nonzero;stroke:none"
         id="path214" />
      <path
         d="M 83.719,8.473 H 83.168 V 6.609 c 0,-0.14 -0.008,-0.277 -0.02,-0.41 C 83.137,6.07 83.109,5.965 83.07,5.887 83.023,5.805 82.961,5.738 82.875,5.695 82.793,5.652 82.672,5.633 82.512,5.633 c -0.153,0 -0.309,0.039 -0.461,0.117 -0.156,0.074 -0.309,0.172 -0.465,0.293 0.008,0.043 0.012,0.098 0.016,0.156 0.003,0.059 0.003,0.117 0.003,0.176 v 2.098 h -0.55 V 6.609 c 0,-0.144 -0.004,-0.281 -0.02,-0.41 C 81.023,6.066 80.996,5.961 80.957,5.883 80.91,5.801 80.848,5.738 80.762,5.695 80.68,5.652 80.559,5.633 80.398,5.633 c -0.148,0 -0.3,0.035 -0.453,0.109 -0.148,0.074 -0.3,0.172 -0.449,0.285 V 8.473 H 78.945 V 5.199 h 0.551 v 0.364 c 0.172,-0.145 0.34,-0.254 0.512,-0.336 0.172,-0.079 0.355,-0.118 0.547,-0.118 0.222,0 0.41,0.047 0.566,0.141 0.156,0.094 0.274,0.223 0.348,0.387 0.222,-0.188 0.426,-0.321 0.609,-0.403 0.184,-0.086 0.379,-0.125 0.59,-0.125 0.359,0 0.625,0.11 0.793,0.329 0.172,0.214 0.258,0.519 0.258,0.91 z"
         style="fill:#000000;fill-opacity:1;fill-rule:nonzero;stroke:none"
         id="path216" />
      <path
         d="m 27.879,22.004 c 0.019,-0.168 0.031,-0.34 0.031,-0.52 0,-0.093 0.004,-0.207 -0.008,-0.336 1.493,-0.019 2.805,-1.097 2.805,-2.335 0,-0.629 -0.41,-1.106 -0.644,-1.391 0.054,-0.012 0.105,-0.024 0.16,-0.035 0.218,0.191 0.84,0.867 0.84,1.722 0,1.485 -1.485,2.864 -3.184,2.895 m -1.504,-5.176 c -0.027,-0.164 -0.094,-0.312 -0.187,-0.441 0.003,-0.153 0.066,-0.297 0.312,-0.18 -0.133,0.137 -0.031,0.375 -0.031,0.375 0,0 0.269,-0.125 0.215,-0.305 0.398,0.098 0.109,0.637 -0.309,0.551 m -0.348,0.766 c -0.054,-0.223 -0.168,-0.449 -0.312,-0.621 -0.133,-0.157 -0.352,-0.344 -0.645,-0.344 -0.132,0 -0.359,0.062 -0.504,0.125 -0.05,-0.098 -0.156,-0.332 -0.156,-0.438 0,-0.109 0.184,-0.218 0.535,-0.218 0.774,0 1.239,0.347 1.239,0.933 0,0.207 -0.082,0.395 -0.157,0.563 m 1.989,9.972 c 0.089,0 0.132,0.016 0.183,0.036 0.223,0.605 1.082,1.75 1.117,1.796 l 0.008,0.012 0.012,-0.004 c 0.211,-0.031 0.75,-0.113 1.199,-0.113 h 0.012 c 0.047,0 0.105,0 0.141,0.035 0.027,0.027 0.042,0.078 0.042,0.152 0,0.114 -0.046,0.305 -0.105,0.383 -0.156,-0.172 -0.414,-0.246 -0.82,-0.246 -0.125,0 -0.27,0.035 -0.348,0.055 l -0.035,0.008 -0.035,0.011 0.234,0.235 c 0.367,0.363 0.68,0.679 0.68,0.89 0,0.125 -0.121,0.289 -0.235,0.36 -0.023,-0.383 -0.41,-0.895 -0.789,-1.184 l -0.031,-0.023 -0.008,0.136 c -0.004,0.09 -0.011,0.227 -0.011,0.375 0,0.731 -0.075,0.84 -0.329,0.84 -0.039,0 -0.097,-0.011 -0.132,-0.023 0.14,-0.176 0.195,-0.41 0.195,-0.817 v -0.187 l -0.004,-0.152 c 0,-0.168 0.02,-0.293 0.031,-0.391 l 0.008,-0.059 -0.039,-0.003 c -0.117,-0.016 -0.34,-0.047 -0.508,-0.047 -0.359,0 -0.605,0.035 -0.781,0.199 -0.117,-0.094 -0.238,-0.258 -0.238,-0.36 0,-0.152 0.097,-0.164 0.218,-0.164 0.067,0 0.125,0.008 0.204,0.02 0.156,0.023 0.39,0.059 0.871,0.059 h 0.031 l -0.012,-0.032 c -0.121,-0.347 -0.457,-0.855 -0.992,-1.508 0.047,-0.171 0.094,-0.289 0.266,-0.289 m -4.633,1.797 -0.008,0.032 h 0.027 c 0.481,0 0.715,-0.036 0.871,-0.059 0.082,-0.012 0.141,-0.02 0.204,-0.02 0.121,0 0.218,0.012 0.218,0.164 0,0.102 -0.121,0.266 -0.238,0.36 -0.176,-0.164 -0.422,-0.199 -0.781,-0.199 -0.168,0 -0.391,0.031 -0.508,0.047 l -0.02,0.003 h -0.019 l 0.008,0.059 c 0.011,0.098 0.031,0.223 0.031,0.391 l -0.004,0.152 v 0.187 c 0,0.407 0.055,0.641 0.199,0.817 -0.039,0.012 -0.097,0.023 -0.136,0.023 -0.254,0 -0.329,-0.109 -0.329,-0.84 0,-0.148 -0.007,-0.285 -0.011,-0.375 l -0.008,-0.136 -0.031,0.023 c -0.375,0.289 -0.766,0.801 -0.789,1.184 -0.114,-0.071 -0.235,-0.235 -0.235,-0.36 0,-0.211 0.313,-0.527 0.68,-0.89 l 0.234,-0.235 -0.066,-0.019 c -0.082,-0.02 -0.227,-0.055 -0.352,-0.055 -0.406,0 -0.66,0.074 -0.82,0.246 -0.059,-0.078 -0.105,-0.269 -0.105,-0.383 0,-0.074 0.015,-0.125 0.046,-0.152 0.036,-0.035 0.09,-0.035 0.137,-0.035 h 0.012 c 0.449,0 0.988,0.082 1.199,0.113 l 0.012,0.004 0.008,-0.012 c 0.035,-0.046 0.894,-1.191 1.117,-1.796 0.051,-0.02 0.097,-0.036 0.187,-0.036 0.168,0 0.215,0.118 0.262,0.289 -0.535,0.653 -0.871,1.161 -0.992,1.508 M 21.066,19.109 c 0,-0.855 0.622,-1.531 0.84,-1.722 0.051,0.011 0.106,0.023 0.157,0.035 -0.231,0.285 -0.645,0.762 -0.645,1.391 0,1.25 1.336,2.335 2.852,2.335 -0.012,0.11 -0.016,0.223 -0.016,0.336 0,0.188 0.012,0.36 0.027,0.52 -1.711,-0.012 -3.215,-1.399 -3.215,-2.895 m 11.477,2.633 c 0.77,1.215 1.371,1.196 2.277,1.196 -0.75,-0.575 -1.246,-1.313 -1.484,-1.688 l -1.402,-2.246 c -0.137,-0.691 -0.496,-1.34 -1.032,-1.824 0.18,-0.067 0.328,-0.141 0.418,-0.207 -0.914,0 -1.82,-0.465 -2.32,-0.465 -0.32,0 -0.527,0.191 -0.527,0.445 0.019,0.281 0.312,0.57 0.847,0.57 0.121,0 0.278,-0.015 0.45,-0.043 0.293,0.403 0.527,0.77 0.527,1.293 0,0.985 -1.176,1.75 -2.363,1.75 -0.067,0 -0.129,-0.003 -0.196,-0.007 -0.109,-0.243 -0.465,-0.653 -0.465,-1.118 0,-0.781 0.508,-1.418 0.508,-2.191 0,-0.48 -0.234,-0.777 -0.324,-0.902 0.145,-0.137 0.305,-0.301 0.344,-0.414 -0.086,0.035 -0.188,0.039 -0.332,0.039 -0.571,0 -1.031,-0.149 -1.485,-0.149 -0.257,0 -0.328,0.082 -0.328,0.157 0,0.027 0.004,0.058 0.012,0.07 -0.094,-0.039 -0.184,-0.063 -0.293,-0.082 -0.133,-0.024 -0.277,-0.039 -0.43,-0.039 -0.547,0 -0.742,0.23 -0.742,0.429 0,0.164 0.129,0.469 0.277,0.704 0.215,-0.11 0.473,-0.18 0.59,-0.18 0.293,0 0.551,0.277 0.688,0.605 -0.195,0.024 -0.235,0.032 -0.43,0.032 -0.535,0 -0.898,-0.192 -0.976,-0.192 -0.004,0 -0.02,0.004 -0.02,0.016 0,0.074 0.152,0.273 0.449,0.383 0.395,0.144 0.985,0.203 1.082,0.218 0,0.02 -0.097,0.203 -0.211,0.239 -0.023,0.007 -0.043,0.011 -0.07,0.004 -0.41,-0.082 -0.523,-0.118 -1.047,-0.313 -0.015,-0.008 -0.023,0.004 -0.023,0.02 0,0.207 0.531,0.66 1.011,0.836 -0.402,0.511 -0.898,1.031 -1.136,1.828 -0.067,0.004 -0.129,0.007 -0.196,0.007 -1.187,0 -2.359,-0.765 -2.359,-1.75 0,-0.523 0.234,-0.89 0.523,-1.293 0.172,0.028 0.329,0.043 0.45,0.043 0.539,0 0.828,-0.289 0.847,-0.57 0,-0.254 -0.203,-0.445 -0.527,-0.445 -0.5,0 -1.406,0.465 -2.32,0.465 0.09,0.066 0.238,0.14 0.418,0.207 -0.535,0.484 -0.895,1.133 -1.032,1.824 l -1.402,2.246 c -0.234,0.375 -0.734,1.113 -1.484,1.688 0.906,0 1.508,0.019 2.277,-1.196 l 0.719,-1.148 c 0.054,0.148 0.117,0.293 0.195,0.437 l -1.43,2.285 c -0.238,0.383 -0.73,1.114 -1.484,1.692 0.906,0 1.508,0.019 2.277,-1.192 l 1.231,-1.972 c 0.09,0.097 0.187,0.195 0.289,0.285 l -1.734,2.781 c -0.239,0.379 -0.731,1.11 -1.485,1.688 0.906,0 1.508,0.023 2.274,-1.192 l 1.695,-2.711 c 0.113,0.071 0.226,0.137 0.344,0.203 l -2.067,3.309 c -0.238,0.379 -0.73,1.106 -1.484,1.688 0.906,0 1.508,0.019 2.277,-1.196 l 2.129,-3.406 c 0.125,0.047 0.25,0.094 0.383,0.137 l -2.406,3.847 c -0.235,0.375 -0.739,1.118 -1.485,1.688 0.907,0 1.508,0.023 2.278,-1.192 l 2.562,-4.101 c 0.028,0.004 0.051,0.008 0.078,0.012 0.071,0.222 0.117,0.429 0.117,0.636 0,1.289 -0.843,2.426 -1.859,3.309 0.063,0.027 0.176,0.035 0.281,0.035 0.211,0 0.344,-0.012 0.442,-0.027 -0.235,0.535 -0.742,1.226 -0.996,1.582 -0.332,-0.059 -0.817,-0.106 -1.133,-0.106 -0.332,0 -0.371,0.196 -0.371,0.367 0,0.301 0.144,0.54 0.304,0.672 0.063,-0.152 0.188,-0.359 0.797,-0.359 0.016,0 0.035,0.004 0.063,0.004 -0.176,0.199 -0.738,0.652 -0.738,1.019 0,0.239 0.265,0.602 0.613,0.602 -0.02,-0.078 -0.016,-0.148 -0.016,-0.203 0,-0.297 0.262,-0.641 0.481,-0.883 -0.008,0.07 -0.004,0.066 -0.004,0.148 0,0.7 0.066,1.02 0.508,1.02 0.218,0 0.367,-0.121 0.418,-0.156 -0.286,-0.266 -0.301,-0.473 -0.301,-0.864 0,-0.101 0,-0.203 0.004,-0.339 0,-0.09 -0.004,-0.207 -0.016,-0.293 0.156,-0.024 0.223,-0.024 0.344,-0.024 0,0 0.629,-0.051 0.781,0.278 0.172,-0.157 0.418,-0.375 0.418,-0.622 0,-0.16 -0.074,-0.343 -0.398,-0.343 -0.125,0 -0.512,0.074 -0.832,0.074 0.085,-0.191 0.472,-0.758 0.808,-1.168 0.051,0.16 0.129,0.332 0.305,0.473 0.023,-0.266 0.18,-1.098 0.59,-1.586 0.05,0.328 0.113,0.668 0.113,1.379 0,1.738 -0.418,3.019 -1.301,3.261 0.113,0.203 0.356,0.383 0.61,0.383 0.324,0 0.5,-0.367 0.679,-0.711 0.094,0.254 0.356,0.879 0.614,0.879 0.257,0 0.519,-0.625 0.613,-0.879 0.179,0.344 0.355,0.711 0.679,0.711 0.254,0 0.497,-0.18 0.614,-0.383 -0.887,-0.242 -1.305,-1.523 -1.305,-3.261 0,-0.711 0.063,-1.051 0.113,-1.379 0.414,0.488 0.567,1.32 0.59,1.586 0.176,-0.141 0.258,-0.313 0.309,-0.473 0.332,0.41 0.719,0.977 0.808,1.168 -0.324,0 -0.711,-0.074 -0.836,-0.074 -0.32,0 -0.398,0.183 -0.398,0.343 0,0.247 0.246,0.465 0.418,0.622 0.152,-0.329 0.781,-0.278 0.781,-0.278 0.121,0 0.188,0 0.348,0.024 -0.016,0.086 -0.016,0.203 -0.016,0.293 0,0.136 0,0.238 0,0.339 0,0.391 -0.011,0.598 -0.301,0.864 0.051,0.035 0.2,0.156 0.418,0.156 0.446,0 0.508,-0.32 0.508,-1.02 0,-0.082 0.004,-0.078 -0.004,-0.148 0.223,0.242 0.485,0.586 0.485,0.883 0,0.055 0,0.125 -0.02,0.203 0.348,0 0.613,-0.363 0.613,-0.602 0,-0.367 -0.558,-0.82 -0.738,-1.019 0.028,0 0.051,-0.004 0.063,-0.004 0.609,0 0.734,0.207 0.797,0.359 0.164,-0.132 0.304,-0.371 0.304,-0.672 0,-0.171 -0.039,-0.367 -0.371,-0.367 -0.316,0 -0.797,0.047 -1.133,0.106 -0.254,-0.356 -0.757,-1.047 -0.996,-1.582 0.098,0.015 0.235,0.027 0.442,0.027 0.105,0 0.218,-0.008 0.281,-0.035 -1.012,-0.883 -1.859,-2.02 -1.859,-3.309 0,-0.207 0.046,-0.414 0.117,-0.636 0.027,-0.004 0.054,-0.008 0.078,-0.012 l 2.562,4.101 c 0.77,1.215 1.371,1.192 2.278,1.192 -0.746,-0.57 -1.25,-1.313 -1.485,-1.688 L 28.414,23.43 c 0.133,-0.043 0.262,-0.09 0.387,-0.137 l 2.129,3.406 c 0.765,1.215 1.367,1.196 2.273,1.196 -0.754,-0.582 -1.242,-1.309 -1.484,-1.688 l -2.067,-3.309 c 0.118,-0.066 0.235,-0.132 0.344,-0.203 l 1.695,2.711 c 0.766,1.215 1.368,1.192 2.274,1.192 -0.754,-0.578 -1.242,-1.309 -1.481,-1.688 l -1.738,-2.781 c 0.102,-0.09 0.199,-0.188 0.289,-0.285 l 1.235,1.972 c 0.765,1.211 1.367,1.192 2.273,1.192 -0.754,-0.578 -1.246,-1.309 -1.484,-1.692 l -1.43,-2.285 c 0.078,-0.144 0.144,-0.289 0.195,-0.437 z"
         style="fill:#000000;fill-opacity:1;fill-rule:nonzero;stroke:none"
         id="path218" />
      <path
         d="M 39.375,16.5 H 42 v 15 h -2.625 z"
         style="fill:#000000;fill-opacity:1;fill-rule:nonzero;stroke:none"
         id="path220" />
      <path
         d="M 39.375,31.5 H 42 v 15 h -2.625 z"
         style="fill:#ff0000;fill-opacity:1;fill-rule:nonzero;stroke:none"
         id="path222" />
      <path
         d="M 39.375,46.5 H 42 v 15 h -2.625 z"
         style="fill:#ffcc00;fill-opacity:1;fill-rule:nonzero;stroke:none"
         id="path224" />
    </g>
  </g>
</svg>
