<svg xmlns="http://www.w3.org/2000/svg" xmlns:xlink="http://www.w3.org/1999/xlink">

<symbol id="dribbble" fill-rule="evenodd" clip-rule="evenodd" stroke-linejoin="round" stroke-miterlimit="1.414"><path d="M8 16c-4.41 0-8-3.59-8-8s3.59-8 8-8 8 3.59 8 8-3.59 8-8 8zm6.747-6.905c-.234-.074-2.115-.635-4.257-.292.894 2.456 1.258 4.456 1.328 4.872 1.533-1.037 2.624-2.68 2.93-4.58zM10.67 14.3c-.102-.6-.5-2.688-1.46-5.18l-.044.014C5.312 10.477 3.93 13.15 3.806 13.4c1.158.905 2.614 1.444 4.194 1.444.947 0 1.85-.194 2.67-.543zm-7.747-1.72c.155-.266 2.03-3.37 5.555-4.51.09-.03.18-.056.27-.08-.173-.39-.36-.778-.555-1.16-3.413 1.02-6.723.977-7.023.97l-.003.208c0 1.755.665 3.358 1.756 4.57zM1.31 6.61c.307.005 3.122.017 6.318-.832-1.132-2.012-2.353-3.705-2.533-3.952-1.912.902-3.34 2.664-3.784 4.785zM6.4 1.368c.188.253 1.43 1.943 2.548 4 2.43-.91 3.46-2.293 3.582-2.468C11.323 1.827 9.736 1.176 8 1.176c-.55 0-1.087.066-1.6.19zm6.89 2.322c-.145.194-1.29 1.662-3.816 2.694.16.325.31.656.453.99.05.117.1.235.147.352 2.274-.286 4.533.172 4.758.22-.015-1.613-.59-3.094-1.543-4.257z"/></symbol>

<symbol id="facebook" fill-rule="evenodd" clip-rule="evenodd" stroke-linejoin="round" stroke-miterlimit="1.414"><path d="M15.117 0H.883C.395 0 0 .395 0 .883v14.234c0 .488.395.883.883.883h7.663V9.804H6.46V7.39h2.086V5.607c0-2.066 1.262-3.19 3.106-3.19.883 0 1.642.064 1.863.094v2.16h-1.28c-1 0-1.195.48-1.195 1.18v1.54h2.39l-.31 2.42h-2.08V16h4.077c.488 0 .883-.395.883-.883V.883C16 .395 15.605 0 15.117 0" fill-rule="nonzero"/></symbol>

<symbol id="flickr" fill-rule="evenodd" clip-rule="evenodd" stroke-linejoin="round" stroke-miterlimit="1.414"><path d="M0 8c0 2.05 1.662 3.71 3.71 3.71 2.05 0 3.713-1.66 3.713-3.71S5.76 4.29 3.71 4.29C1.663 4.29 0 5.95 0 8zm8.577 0c0 2.05 1.662 3.71 3.712 3.71C14.33 11.71 16 10.05 16 8s-1.662-3.71-3.71-3.71c-2.05 0-3.713 1.66-3.713 3.71z"/></symbol>

<symbol id="github" fill-rule="evenodd" clip-rule="evenodd" stroke-linejoin="round" stroke-miterlimit="1.414" viewBox="0 0 98 96">
<path d="M41.4395 69.3848C28.8066 67.8535 19.9062 58.7617 19.9062 46.9902C19.9062 42.2051 21.6289 37.0371 24.5 33.5918C23.2559 30.4336 23.4473 23.7344 24.8828 20.959C28.7109 20.4805 33.8789 22.4902 36.9414 25.2656C40.5781 24.1172 44.4062 23.543 49.0957 23.543C53.7852 23.543 57.6133 24.1172 61.0586 25.1699C64.0254 22.4902 69.2891 20.4805 73.1172 20.959C74.457 23.543 74.6484 30.2422 73.4043 33.4961C76.4668 37.1328 78.0937 42.0137 78.0937 46.9902C78.0937 58.7617 69.1934 67.6621 56.3691 69.2891C59.623 71.3945 61.8242 75.9883 61.8242 81.252L61.8242 91.2051C61.8242 94.0762 64.2168 95.7031 67.0879 94.5547C84.4102 87.9512 98 70.6289 98 49.1914C98 22.1074 75.9883 6.69539e-07 48.9043 4.309e-07C21.8203 1.92261e-07 -1.9479e-07 22.1074 -4.3343e-07 49.1914C-6.20631e-07 70.4375 13.4941 88.0469 31.6777 94.6504C34.2617 95.6074 36.75 93.8848 36.75 91.3008L36.75 83.6445C35.4102 84.2188 33.6875 84.6016 32.1562 84.6016C25.8398 84.6016 22.1074 81.1563 19.4277 74.7441C18.375 72.1602 17.2266 70.6289 15.0254 70.3418C13.877 70.2461 13.4941 69.7676 13.4941 69.1934C13.4941 68.0449 15.4082 67.1836 17.3223 67.1836C20.0977 67.1836 22.4902 68.9063 24.9785 72.4473C26.8926 75.2227 28.9023 76.4668 31.2949 76.4668C33.6875 76.4668 35.2187 75.6055 37.4199 73.4043C39.0469 71.7773 40.291 70.3418 41.4395 69.3848Z"/>
</symbol>

<symbol id="researchgate" fill-rule="evenodd" clip-rule="evenodd" stroke-linejoin="round" stroke-miterlimit="1.414" viewBox="0 0 32 32">
<path d="m 19.613364,31.782095 c -2.752695,-0.551649 -4.388912,-2.186895 -8.566078,-8.53086 -1.3859722,-2.12779 -1.3859722,-2.12779 -2.7334452,-2.226299 -1.982711,-0.137912 -1.828714,-0.492543 -1.770965,3.979755 0.077,5.083053 0.01925,4.964843 2.887442,5.457387 0.7507352,0.11821 0.8084842,0.177316 0.8084842,0.630456 0,0.512246 0,0.512246 -5.0433992,0.551649 -4.73540485,0.0394 -5.04339875,0.0197 -5.13964675,-0.275824 -0.1924962,-0.571351 0.096248,-0.847176 1.13572725,-1.044194 1.1742264,-0.216719 1.7902145,-0.709263 1.9442105,-1.536737 0.077,-0.315228 0.09625,-4.570807 0.05775,-9.456843 C 3.1356938,9.0659701 3.2511938,9.6767251 1.40323,9.2629881 0.24825315,9.0068651 -0.11748955,8.7310401 0.03650745,8.2581981 c 0.1154976,-0.315228 0.3657426,-0.33493 5.62088735,-0.433438 7.8153432,-0.157614 9.2783142,0.09851 11.3572722,1.989877 2.175206,1.9898769 2.4832,5.0239479 0.750735,7.5654739 -0.769985,1.142702 -2.309954,2.364211 -3.50343,2.817352 -0.558239,0.216719 -1.020229,0.45314 -1.020229,0.531947 0,0.236421 1.770964,2.817351 2.868192,4.196474 2.925941,3.644825 4.50441,5.063352 6.140627,5.49679 1.02023,0.275825 1.308974,0.571351 1.02023,1.083597 -0.307994,0.531947 -1.847963,0.650158 -3.657427,0.275824 z M 12.240762,18.719831 c 3.849923,-1.615544 4.138667,-7.033527 0.48124,-8.629369 -0.943231,-0.4137369 -1.193476,-0.4334389 -3.5611782,-0.4334389 -2.560199,0 -2.560199,0 -2.598698,4.5511059 -0.0385,2.502123 -0.01925,4.669316 0.0385,4.787526 0.173246,0.413737 4.5044102,0.197018 5.6401362,-0.275824 z M 25.657743,13.10483 c -2.983691,-0.571351 -3.965421,-2.443017 -3.811424,-7.2502459 0.077,-2.659737 0.288744,-3.3887022 1.289724,-4.4920006 1.770965,-1.95047381 6.159877,-1.77315801 7.776844,0.3152282 0.692986,0.886579 0.635237,1.1624036 -0.327243,1.4579299 -0.750735,0.2561225 -0.750735,0.2561225 -1.443721,-0.4531404 -1.636217,-1.615544 -4.465911,-1.0244913 -4.966401,1.0638949 -0.250245,0.925983 -0.230995,4.846632 0.01925,5.733211 0.673736,2.5021229 4.735405,2.5021229 5.428391,0 0.423492,-1.595842 0.327244,-1.714053 -1.539969,-1.812561 -0.904732,-0.0394 -0.904732,-0.0394 -0.904732,-0.807772 0,-0.748667 0,-0.748667 2.155957,-0.807773 2.791194,-0.05911 2.752695,-0.09851 2.617947,1.989878 -0.173246,2.6203339 -0.866232,3.8812459 -2.540949,4.6299129 -1.097228,0.472842 -2.598698,0.650158 -3.753674,0.433438 z m 0,0 z"/>
</symbol>

<symbol id="scholar" fill-rule="evenodd" clip-rule="evenodd" stroke-linejoin="round" stroke-miterlimit="1.414" viewBox="0 0 512 512">
<path d="M390.9 298.5s0 .1 .1 .1c9.2 19.4 14.4 41.1 14.4 64-.1 82.5-66.9 149.4-149.4 149.4S106.7 445.1 106.7 362.7c0-22.9 5.2-44.6 14.4-64 1.7-3.6 3.6-7.2 5.6-10.7 4.4-7.6 9.4-14.7 15-21.3 27.4-32.6 68.5-53.3 114.4-53.3 33.6 0 64.6 11.1 89.6 29.9 9.1 6.9 17.4 14.7 24.8 23.5 5.6 6.6 10.6 13.8 15 21.3 2 3.4 3.8 7 5.5 10.5l-.1-.1zm26.4-18.8c-30.1-58.4-91-98.4-161.3-98.4s-131.2 40-161.3 98.4l-94.7-77 256-202.7 256 202.7-94.7 77.1 0-.1z"/>
</symbol>

<symbol id="orcid" fill-rule="evenodd" clip-rule="evenodd" stroke-linejoin="round" stroke-miterlimit="1.414" viewBox="0 0 32 32">
<path d="m 18.813,9.637 h -5.45 v 13.9 h 5.474 c 4.555,0 7.35,-3.378 7.35,-6.95 0,-1.635 -0.562,-3.372 -1.77,-4.704 C 23.202,10.547 21.352,9.637 18.812,9.637 Z M 18.6,21.3 H 15.787 V 11.875 H 18.5 c 1.823,0 3.12,0.552 3.96,1.4 0.842,0.849 1.252,2.021 1.252,3.312 0,0.784 -0.239,1.967 -0.993,2.948 -0.745,0.969 -2.01,1.765 -4.119,1.765 z m 5.311,-4.026 C 23.66,19.014 22.417,21.55 18.6,21.55 H 15.537 18.6 c 3.817,0 5.06,-2.536 5.311,-4.276 z m 1.812,-2.405 c -0.657,-2.601 -2.85,-4.982 -6.91,-4.982 h -5.2 5.2 c 4.06,0 6.253,2.38 6.91,4.982 z m 0.215,1.718 z M 8.363,9.675 v 13.887 h 2.425 V 9.675 Z m 2.175,13.637 H 8.612 10.537 Z M 9.575,8.65 c 0.84,0 1.513,-0.689 1.513,-1.513 0,-0.823 -0.673,-1.512 -1.513,-1.512 -0.838,0 -1.512,0.674 -1.512,1.513 0,0.823 0.672,1.512 1.512,1.512 z M 32,16 C 32,24.837 24.837,32 16,32 7.162,32 0,24.837 0,16 0,7.162 7.162,0 16,0 24.837,0 32,7.162 32,16 Z"/>
</symbol>

<symbol id="instagram" fill-rule="evenodd" clip-rule="evenodd" stroke-linejoin="round" stroke-miterlimit="1.414"><path d="M8 0C5.827 0 5.555.01 4.702.048 3.85.088 3.27.222 2.76.42c-.526.204-.973.478-1.417.923-.445.444-.72.89-.923 1.417-.198.51-.333 1.09-.372 1.942C.008 5.555 0 5.827 0 8s.01 2.445.048 3.298c.04.852.174 1.433.372 1.942.204.526.478.973.923 1.417.444.445.89.72 1.417.923.51.198 1.09.333 1.942.372.853.04 1.125.048 3.298.048s2.445-.01 3.298-.048c.852-.04 1.433-.174 1.942-.372.526-.204.973-.478 1.417-.923.445-.444.72-.89.923-1.417.198-.51.333-1.09.372-1.942.04-.853.048-1.125.048-3.298s-.01-2.445-.048-3.298c-.04-.852-.174-1.433-.372-1.942-.204-.526-.478-.973-.923-1.417-.444-.445-.89-.72-1.417-.923-.51-.198-1.09-.333-1.942-.372C10.445.008 10.173 0 8 0zm0 1.44c2.136 0 2.39.01 3.233.048.78.036 1.203.166 1.485.276.374.145.64.318.92.598.28.28.453.546.598.92.11.282.24.705.276 1.485.038.844.047 1.097.047 3.233s-.01 2.39-.05 3.233c-.04.78-.17 1.203-.28 1.485-.15.374-.32.64-.6.92-.28.28-.55.453-.92.598-.28.11-.71.24-1.49.276-.85.038-1.1.047-3.24.047s-2.39-.01-3.24-.05c-.78-.04-1.21-.17-1.49-.28-.38-.15-.64-.32-.92-.6-.28-.28-.46-.55-.6-.92-.11-.28-.24-.71-.28-1.49-.03-.84-.04-1.1-.04-3.23s.01-2.39.04-3.24c.04-.78.17-1.21.28-1.49.14-.38.32-.64.6-.92.28-.28.54-.46.92-.6.28-.11.7-.24 1.48-.28.85-.03 1.1-.04 3.24-.04zm0 2.452c-2.27 0-4.108 1.84-4.108 4.108 0 2.27 1.84 4.108 4.108 4.108 2.27 0 4.108-1.84 4.108-4.108 0-2.27-1.84-4.108-4.108-4.108zm0 6.775c-1.473 0-2.667-1.194-2.667-2.667 0-1.473 1.194-2.667 2.667-2.667 1.473 0 2.667 1.194 2.667 2.667 0 1.473-1.194 2.667-2.667 2.667zm5.23-6.937c0 .53-.43.96-.96.96s-.96-.43-.96-.96.43-.96.96-.96.96.43.96.96z"/></symbol>

<symbol id="linkedin" fill-rule="evenodd" clip-rule="evenodd" stroke-linejoin="round" stroke-miterlimit="1.414"><path d="M13.632 13.635h-2.37V9.922c0-.886-.018-2.025-1.234-2.025-1.235 0-1.424.964-1.424 1.96v3.778h-2.37V6H8.51v1.04h.03c.318-.6 1.092-1.233 2.247-1.233 2.4 0 2.845 1.58 2.845 3.637v4.188zM3.558 4.955c-.762 0-1.376-.617-1.376-1.377 0-.758.614-1.375 1.376-1.375.76 0 1.376.617 1.376 1.375 0 .76-.617 1.377-1.376 1.377zm1.188 8.68H2.37V6h2.376v7.635zM14.816 0H1.18C.528 0 0 .516 0 1.153v13.694C0 15.484.528 16 1.18 16h13.635c.652 0 1.185-.516 1.185-1.153V1.153C16 .516 15.467 0 14.815 0z" fill-rule="nonzero"/></symbol>

<symbol id="pinterest" fill-rule="evenodd" clip-rule="evenodd" stroke-linejoin="round" stroke-miterlimit="1.414"><path d="M8 0C3.582 0 0 3.582 0 8c0 3.39 2.108 6.285 5.084 7.45-.07-.633-.133-1.604.028-2.295.146-.625.938-3.977.938-3.977s-.24-.48-.24-1.188c0-1.11.646-1.943 1.448-1.943.683 0 1.012.513 1.012 1.127 0 .687-.436 1.713-.662 2.664-.19.797.4 1.445 1.185 1.445 1.42 0 2.514-1.498 2.514-3.662 0-1.91-1.376-3.25-3.342-3.25-2.276 0-3.61 1.71-3.61 3.47 0 .69.263 1.43.593 1.83.066.08.075.15.057.23-.06.25-.196.8-.223.91-.035.15-.115.18-.268.11C3.516 10.46 2.89 9 2.89 7.82c0-2.52 1.834-4.84 5.287-4.84 2.774 0 4.932 1.98 4.932 4.62 0 2.76-1.74 4.98-4.16 4.98-.81 0-1.57-.42-1.84-.92l-.5 1.9c-.18.698-.67 1.57-1 2.1.75.23 1.54.357 2.37.357 4.41 0 8-3.58 8-8s-3.59-8-8-8z" fill-rule="nonzero"/></symbol>

<symbol id="rss" fill-rule="evenodd" clip-rule="evenodd" stroke-linejoin="round" stroke-miterlimit="1.414"><path d="M12.8 16C12.8 8.978 7.022 3.2 0 3.2V0c8.777 0 16 7.223 16 16h-3.2zM2.194 11.61c1.21 0 2.195.985 2.195 2.196 0 1.21-.99 2.194-2.2 2.194C.98 16 0 15.017 0 13.806c0-1.21.983-2.195 2.194-2.195zM10.606 16h-3.11c0-4.113-3.383-7.497-7.496-7.497v-3.11c5.818 0 10.606 4.79 10.606 10.607z"/></symbol>

<symbol id="stackoverflow" class="svg-icon" fill-rule="evenodd" clip-rule="evenodd" stroke-linejoin="round" stroke-miterlimit="1.414"><path d="M12.658 14.577v-4.27h1.423V16H1.23v-5.693h1.42v4.27h10.006zm-8.583-1.423h7.16V11.73h-7.16v1.424zm.173-3.235l6.987 1.46.3-1.38L4.55 8.54l-.302 1.38zm.906-3.37l6.47 3.02.602-1.3-6.47-3.02-.602 1.29zm1.81-3.19l5.478 4.57.906-1.08L7.87 2.28l-.9 1.078zM10.502 0L9.338.863l4.27 5.735 1.164-.862L10.5 0z"/></symbol>

<symbol id="twitter" fill-rule="evenodd" clip-rule="evenodd" stroke-linejoin="round" stroke-miterlimit="1.414"><path d="M16 3.038c-.59.26-1.22.437-1.885.517.677-.407 1.198-1.05 1.443-1.816-.634.37-1.337.64-2.085.79-.598-.64-1.45-1.04-2.396-1.04-1.812 0-3.282 1.47-3.282 3.28 0 .26.03.51.085.75-2.728-.13-5.147-1.44-6.766-3.42C.83 2.58.67 3.14.67 3.75c0 1.14.58 2.143 1.46 2.732-.538-.017-1.045-.165-1.487-.41v.04c0 1.59 1.13 2.918 2.633 3.22-.276.074-.566.114-.865.114-.21 0-.41-.02-.61-.058.42 1.304 1.63 2.253 3.07 2.28-1.12.88-2.54 1.404-4.07 1.404-.26 0-.52-.015-.78-.045 1.46.93 3.18 1.474 5.04 1.474 6.04 0 9.34-5 9.34-9.33 0-.14 0-.28-.01-.42.64-.46 1.2-1.04 1.64-1.7z" fill-rule="nonzero"/></symbol>

<symbol id="youtube" fill-rule="evenodd" clip-rule="evenodd" stroke-linejoin="round" stroke-miterlimit="1.414"><path d="M0 7.345c0-1.294.16-2.59.16-2.59s.156-1.1.636-1.587c.608-.637 1.408-.617 1.764-.684C3.84 2.36 8 2.324 8 2.324s3.362.004 5.6.166c.314.038.996.04 1.604.678.48.486.636 1.588.636 1.588S16 6.05 16 7.346v1.258c0 1.296-.16 2.59-.16 2.59s-.156 1.102-.636 1.588c-.608.638-1.29.64-1.604.678-2.238.162-5.6.166-5.6.166s-4.16-.037-5.44-.16c-.356-.067-1.156-.047-1.764-.684-.48-.487-.636-1.587-.636-1.587S0 9.9 0 8.605v-1.26zm6.348 2.73V5.58l4.323 2.255-4.32 2.24z"/></symbol>

<symbol id="mastodon" fill-rule="evenodd" clip-rule="evenodd" stroke-linejoin="round" stroke-miterlimit="1.414">
  <path transform="scale(0.07)" d="M211.80734 139.0875c-3.18125 16.36625-28.4925 34.2775-57.5625 37.74875-15.15875 1.80875-30.08375 3.47125-45.99875 2.74125-26.0275-1.1925-46.565-6.2125-46.565-6.2125 0 2.53375.15625 4.94625.46875 7.2025 3.38375 25.68625 25.47 27.225 46.39125 27.9425 21.11625.7225 39.91875-5.20625 39.91875-5.20625l.8675 19.09s-14.77 7.93125-41.08125 9.39c-14.50875.7975-32.52375-.365-53.50625-5.91875C9.23234 213.82 1.40609 165.31125.20859 116.09125c-.365-14.61375-.14-28.39375-.14-39.91875 0-50.33 32.97625-65.0825 32.97625-65.0825C49.67234 3.45375 78.20359.2425 107.86484 0h.72875c29.66125.2425 58.21125 3.45375 74.8375 11.09 0 0 32.975 14.7525 32.975 65.0825 0 0 .41375 37.13375-4.59875 62.915"/>
  <path transform="scale(0.07)" fill="#FFF" d="M177.50984 80.077v60.94125h-24.14375v-59.15c0-12.46875-5.24625-18.7975-15.74-18.7975-11.6025 0-17.4175 7.5075-17.4175 22.3525v32.37625H96.20734V85.42325c0-14.845-5.81625-22.3525-17.41875-22.3525-10.49375 0-15.74 6.32875-15.74 18.7975v59.15H38.90484V80.077c0-12.455 3.17125-22.3525 9.54125-29.675 6.56875-7.3225 15.17125-11.07625 25.85-11.07625 12.355 0 21.71125 4.74875 27.8975 14.2475l6.01375 10.08125 6.015-10.08125c6.185-9.49875 15.54125-14.2475 27.8975-14.2475 10.6775 0 19.28 3.75375 25.85 11.07625 6.36875 7.3225 9.54 17.22 9.54 29.675"/>
</symbol>

<symbol id="microdotblog" fill-rule="evenodd" clip-rule="evenodd" stroke-linejoin="round" stroke-miterlimit="1.414">
        <path d="M13.8958184,12.3539692 C13.7934913,12.5766333 13.7214973,12.7460692 13.6798363,12.8622768 C13.534018,13.2690171 13.4876062,13.5959963 13.4737723,13.8031622 C13.4047037,14.8374843 13.8695637,15.452098 13.9792411,15.6152902 C14.143626,15.8598834 14.2103299,15.996999 14.1793527,16.0266369 C14.1187128,16.1331597 13.9329861,16.1331597 13.6221726,16.0266369 C13.1559524,15.8668527 11.8671503,15.3666667 11.3815104,14.6616443 C11.1859547,14.3777486 11.0620507,14.2565499 10.9838025,14.2130531 C10.0617698,14.5547858 9.05472096,14.7428571 8,14.7428571 C3.581722,14.7428571 0,11.4425562 0,7.37142857 C0,3.30030099 3.581722,0 8,0 C12.418278,0 16,3.30030099 16,7.37142857 C16,9.29250872 15.2024583,11.041949 13.8958184,12.3539692 Z M7.94285714,9.78095238 C9.51605596,10.7990263 10.3706771,11.2483272 10.5067204,11.1288551 C10.6427638,11.0093829 10.4795457,10.0577483 10.0170661,8.27395135 C11.4827084,7.15954158 12.1741114,6.48559023 12.0912751,6.2520973 C12.0084388,6.01860437 11.0529434,5.87976276 9.22478879,5.83557246 C8.61970046,4.10392098 8.19238991,3.23809524 7.94285714,3.23809524 C7.69332437,3.23809524 7.26601382,4.10392098 6.6609255,5.83557246 C4.82960347,5.88951121 3.87410803,6.02835282 3.7944392,6.2520973 C3.71477036,6.47584178 4.40617335,7.14979313 5.86864817,8.27395135 C5.36780472,9.99753359 5.20458662,10.9491682 5.37899385,11.1288551 C5.55340109,11.308542 6.40802218,10.8592411 7.94285714,9.78095238 Z"></path>
</symbol>

<symbol id="telegram" fill-rule="evenodd" clip-rule="evenodd" stroke-linejoin="round" stroke-miterlimit="1.414" viewBox="0 0 1792 1792">
        <path d="M1189 1307l147-693q9-44-10.5-63t-51.5-7l-864 333q-29 11-39.5 25t-2.5 26.5 32 19.5l221 69 513-323q21-14 32-6 7 5-4 15l-415 375-16 228q23 0 45-22l108-104 224 165q64 36 81-38zm603-411q0 182-71 348t-191 286-286 191-348 71-348-71-286-191-191-286-71-348 71-348 191-286 286-191 348-71 348 71 286 191 191 286 71 348z"/>
</symbol>

<symbol id="keybase" fill-rule="evenodd" clip-rule="evenodd" stroke-linejoin="round" stroke-miterlimit="1.414" viewBox="0 0 50 50">
  <path d="M31.5 40A1.5 1.5 0 1 0 31.5 43 1.5 1.5 0 1 0 31.5 40zM20.5 40A1.5 1.5 0 1 0 20.5 43 1.5 1.5 0 1 0 20.5 40z"/><path fill="none" stroke="#000" stroke-linecap="round" stroke-miterlimit="10" stroke-width="2" d="M7.167 39c.289 2.14.955 4.157 1.91 6M19.25 13h-4.5C14.336 13 14 12.664 14 12.25v-4.5C14 7.336 14.336 7 14.75 7h4.5C19.664 7 20 7.336 20 7.75v3"/><path d="M25.5,23c-4.136,0-7.5-3.364-7.5-7.5c0-6.863,5.59-12.023,5.827-12.24c0.345-0.313,0.858-0.346,1.242-0.082c0.383,0.265,0.531,0.76,0.359,1.192C25,5.45,24.614,7.253,25.007,7.831C25.041,7.882,25.122,8,25.5,8c4.136,0,7.5,3.364,7.5,7.5S29.636,23,25.5,23z"/><path d="M44.938,34.942c-0.482-6.158-3.811-11.592-8.878-14.837c-0.041-0.026-0.081-0.054-0.122-0.08c-0.336-0.211-0.681-0.41-1.031-0.602c-0.123-0.068-0.244-0.137-0.369-0.202c-0.082-0.043-0.168-0.08-0.251-0.121c-0.63,1.531-1.649,2.862-2.932,3.871l3.352,3.352c0.391,0.391,0.391,1.023,0,1.414c-0.195,0.195-0.451,0.293-0.707,0.293s-0.512-0.098-0.707-0.293l-0.837-0.837l-1.808,1.808C30.453,28.902,30.197,29,29.941,29s-0.512-0.098-0.707-0.293c-0.391-0.391-0.391-1.023,0-1.414l1.808-1.808L30,24.443l-1.293,1.293c-0.195,0.195-0.451,0.293-0.707,0.293s-0.512-0.098-0.707-0.293c-0.236-0.236-0.311-0.557-0.263-0.862C26.532,24.955,26.021,25,25.5,25c-4.033,0-7.478-2.53-8.854-6.083C9.218,22.402,5,30.302,5,41v3l1.8-2.4c1.86-2.48,4.12-4.968,6.266-6.95c-0.528,1.41-0.882,2.821-1.058,4.226l-0.314,2.514l1.947-1.622C13.697,39.721,19.437,35,26,35c3.219,0,4.979,0.298,6.531,0.562C33.861,35.787,35.118,36,37,36c3.1,0,4.797-1.585,5.537-3.485c0.197,0.844,0.336,1.707,0.407,2.586C42.98,35.564,43,36.03,43,36.5c0,2.818-0.662,5.522-1.968,8.04c-0.254,0.49-0.063,1.094,0.427,1.348C41.606,45.964,41.764,46,41.919,46c0.361,0,0.711-0.196,0.889-0.54C44.263,42.656,45,39.642,45,36.5C45,35.977,44.979,35.457,44.938,34.942z"/>
</symbol>

<symbol id="devto" fill-rule="evenodd" clip-rule="evenodd" stroke-linejoin="round" stroke-miterlimit="1.414">
  <path transform="scale(0.039)" d="M10.5 2.5C5.6 4.2 2.4 7.8 1 12.9.3 15.6.1 77.2.2 207.1.5 396.6.5 397.5 2.5 401c1.2 1.9 3.6 4.3 5.5 5.5 3.5 2 4.2 2 196 2s192.5 0 196-2c1.9-1.2 4.3-3.6 5.5-5.5 2-3.5 2-4.2 2-196s0-192.5-2-196c-1.2-1.9-3.6-4.3-5.5-5.5-3.5-2-4.4-2-194.5-2.2-162.9-.2-191.6 0-195 1.2zm96.8 124c9 1.9 15.5 5.6 22.2 12.6 6.1 6.4 9.9 13.7 11.5 21.9 1.3 6.9 1.3 81.1 0 88.1-3.4 18.2-18.9 32.4-38.1 34.9-4 .5-17.4 1-29.6 1H51V125h24.8c17.6 0 26.6.4 31.5 1.5zm130.7 13V154h-51v36h31v29h-31l.2 18.2.3 18.3 25.3.3 25.2.2v29h-29.5c-32.8 0-37.9-.6-43.1-5.2-7.3-6.4-6.9-2.3-7.2-72.6-.2-43.8.1-64.5.8-67.3 1.4-5.2 7.3-11.6 12.5-13.4 3.1-1.1 10.9-1.4 35.3-1.5H238v14.5zm48.9-12.3c.4 1.3 6.8 25.6 14.2 54 7.4 28.5 13.6 51.2 13.8 50.5.3-.7 6.6-24.8 14.1-53.7l13.7-52.5 15.6-.3c11.8-.2 15.7.1 15.7 1s-34.6 132.4-36.6 139c-1.4 4.6-8.9 14-13.1 16.5-5.3 3-13.1 3.5-17.9 1-4.3-2.2-10-8.8-12.9-15-1.8-3.8-31.2-112-38-140l-.7-2.7h15.6c15.3 0 15.7 0 16.5 2.2z"/>
  <path transform="scale(0.039)" d="M80 205v51.2l10.3-.4c8.9-.3 10.8-.7 14.8-3 7.8-4.6 7.9-4.9 7.9-48.4 0-42.4 0-42.4-7.3-47.2-3.6-2.4-5.1-2.7-14.9-3.1l-10.8-.3V205z"/>
</symbol>

<symbol id="gitlab" fill-rule="evenodd" clip-rule="evenodd" stroke-linejoin="round" stroke-miterlimit="1.414" viewBox="0 0 1792 1792">
  <path d="M104 706l792 1015-868-630q-18-13-25-34.5t0-42.5l101-308zm462 0h660l-330 1015zm-198-612l198 612h-462l198-612q8-23 33-23t33 23zm1320 612l101 308q7 21 0 42.5t-25 34.5l-868 630 792-1015zm0 0h-462l198-612q8-23 33-23t33 23z"/>
</symbol>

<symbol id="element" class="svg-icon" fill-rule="evenodd" clip-rule="evenodd" stroke-linejoin="round" stroke-miterlimit="1.414" viewBox="0 0 112 112">
<path d="M56 112C86.9279 112 112 86.9279 112 56C112 25.0721 86.9279 0 56 0C25.0721 0 0 25.0721 0 56C0 86.9279 25.0721 112 56 112Z M45.7614 26.093C45.7614 23.8326 47.5977 22.0001 49.8628 22.0001C65.2154 22.0001 77.6611 34.42 77.6611 49.7406C77.6611 52.0011 75.8248 53.8335 73.5597 53.8335C71.2945 53.8335 69.4583 52.0011 69.4583 49.7406C69.4583 38.9408 60.6851 30.1859 49.8628 30.1859C47.5977 30.1859 45.7614 28.3534 45.7614 26.093Z M85.8985 45.6477C88.1637 45.6477 89.9999 47.4801 89.9999 49.7406C89.9999 65.0612 77.5542 77.4811 62.2017 77.4811C59.9366 77.4811 58.1003 75.6486 58.1003 73.3882C58.1003 71.1278 59.9366 69.2953 62.2017 69.2953C73.0239 69.2953 81.7971 60.5404 81.7971 49.7406C81.7971 47.4801 83.6334 45.6477 85.8985 45.6477Z M66.3031 85.907C66.3031 88.1675 64.4669 89.9999 62.2017 89.9999C46.8492 89.9999 34.4035 77.5801 34.4035 62.2594C34.4035 59.999 36.2398 58.1665 38.5049 58.1665C40.77 58.1665 42.6063 59.999 42.6063 62.2594C42.6063 73.0592 51.3795 81.8142 62.2017 81.8142C64.4669 81.8142 66.3031 83.6466 66.3031 85.907Z M26.1014 66.3524C23.8363 66.3524 22 64.5199 22 62.2595C22 46.9388 34.4457 34.519 49.7982 34.519C52.0633 34.519 53.8996 36.3514 53.8996 38.6118C53.8996 40.8723 52.0633 42.7047 49.7982 42.7047C38.976 42.7047 30.2028 51.4597 30.2028 62.2595C30.2028 64.5199 28.3665 66.3524 26.1014 66.3524Z"/>
</symbol>

<symbol id="mail" fill-rule="evenodd" clip-rule="evenodd" stroke-linejoin="round" stroke-miterlimit="1.414" viewBox="0 0 512 512">
<path d="M61.4 64C27.5 64 0 91.5 0 125.4 0 126.3 0 127.1 .1 128L0 128 0 384c0 35.3 28.7 64 64 64l384 0c35.3 0 64-28.7 64-64l0-256-.1 0c0-.9 .1-1.7 .1-2.6 0-33.9-27.5-61.4-61.4-61.4L61.4 64zM464 192.3L464 384c0 8.8-7.2 16-16 16L64 400c-8.8 0-16-7.2-16-16l0-191.7 154.8 117.4c31.4 23.9 74.9 23.9 106.4 0L464 192.3zM48 125.4C48 118 54 112 61.4 112l389.2 0c7.4 0 13.4 6 13.4 13.4 0 4.2-2 8.2-5.3 10.7L280.2 271.5c-14.3 10.8-34.1 10.8-48.4 0L53.3 136.1c-3.3-2.5-5.3-6.5-5.3-10.7z"/>
</symbol>
</svg>
